<?xml version="1.0" encoding="UTF-8" standalone="no"?>
<!DOCTYPE svg PUBLIC "-//W3C//DTD SVG 1.1//EN"
 "http://www.w3.org/Graphics/SVG/1.1/DTD/svg11.dtd">
<!-- Generated by graphviz version 2.43.0 (0)
 -->
<!-- Title: src/max30001g.h Pages: 1 -->
<!--zoomable 196 -->
<svg id="main" version="1.1" xmlns="http://www.w3.org/2000/svg" xmlns:xlink="http://www.w3.org/1999/xlink" xml:space="preserve" onload="init(evt)">
<style type="text/css"><![CDATA[
.edge:hover path { stroke: red; }
.edge:hover polygon { stroke: red; fill: red; }
]]></style>
<script type="text/javascript"><![CDATA[
var edges = document.getElementsByTagName('g');
if (edges && edges.length) {
  for (var i=0;i<edges.length;i++) {
    if (edges[i].id.substr(0,4)=='edge') {
      edges[i].setAttribute('class','edge');
    }
  }
}
]]></script>
        <defs>
                <circle id="rim" cx="0" cy="0" r="7"/>
                <circle id="rim2" cx="0" cy="0" r="3.5"/>
                <g id="zoomPlus">
                        <use xlink:href="#rim" fill="#404040">
                                <set attributeName="fill" to="#808080" begin="zoomplus.mouseover" end="zoomplus.mouseout"/>
                        </use>
                        <path d="M-4,0h8M0,-4v8" fill="none" stroke="white" stroke-width="1.5" pointer-events="none"/>
                </g>
                <g id="zoomMin">
                        <use xlink:href="#rim" fill="#404040">
                                <set attributeName="fill" to="#808080" begin="zoomminus.mouseover" end="zoomminus.mouseout"/>
                        </use>
                        <path d="M-4,0h8" fill="none" stroke="white" stroke-width="1.5" pointer-events="none"/>
                </g>
                <g id="dirArrow">
                        <path fill="none" stroke="white" stroke-width="1.5" d="M0,-3.0v7 M-2.5,-0.5L0,-3.0L2.5,-0.5"/>
                </g>
               <g id="resetDef">
                       <use xlink:href="#rim2" fill="#404040">
                               <set attributeName="fill" to="#808080" begin="reset.mouseover" end="reset.mouseout"/>
                       </use>
               </g>
        </defs>

<script type="text/javascript">
var viewWidth = 566;
var viewHeight = 196;
var sectionId = 'dynsection-0';
</script>
<script xlink:href="svgpan.js"/>
<svg id="graph" class="graph">
<g id="viewport">
<title>src/max30001g.h</title>
<polygon fill="white" stroke="transparent" points="-4,4 -4,-192 561.61,-192 561.61,4 -4,4"/>
<!-- Node1 -->
<g id="node1" class="node">
<title>Node1</title>
<g id="a_node1"><a xlink:title=" ">
<polygon fill="#bfbfbf" stroke="black" points="302.11,-168.5 302.11,-187.5 394.11,-187.5 394.11,-168.5 302.11,-168.5"/>
<text text-anchor="middle" x="348.11" y="-175.5" font-family="Helvetica,sans-Serif" font-size="10.00">src/max30001g.h</text>
</a>
</g>
</g>
<!-- Node2 -->
<g id="node2" class="node">
<title>Node2</title>
<g id="a_node2"><a xlink:title=" ">
<polygon fill="white" stroke="#bfbfbf" points="157.61,-0.5 157.61,-19.5 206.61,-19.5 206.61,-0.5 157.61,-0.5"/>
<text text-anchor="middle" x="182.11" y="-7.5" font-family="Helvetica,sans-Serif" font-size="10.00">stdint.h</text>
</a>
</g>
</g>
<!-- Node1&#45;&gt;Node2 -->
<g id="edge1" class="edge">
<title>Node1&#45;&gt;Node2</title>
<path fill="none" stroke="midnightblue" d="M302,-170.33C217.2,-157 41.94,-124.15 7.11,-76 -29.18,-25.84 86.13,-14.34 147,-11.74"/>
<polygon fill="midnightblue" stroke="midnightblue" points="147.47,-15.23 157.33,-11.36 147.21,-8.23 147.47,-15.23"/>
</g>
<!-- Node3 -->
<g id="node3" class="node">
<title>Node3</title>
<g id="a_node3"><a xlink:title=" ">
<polygon fill="white" stroke="#bfbfbf" points="516.61,-112.5 516.61,-131.5 557.61,-131.5 557.61,-112.5 516.61,-112.5"/>
<text text-anchor="middle" x="537.11" y="-119.5" font-family="Helvetica,sans-Serif" font-size="10.00">SPI.h</text>
</a>
</g>
</g>
<!-- Node1&#45;&gt;Node3 -->
<g id="edge2" class="edge">
<title>Node1&#45;&gt;Node3</title>
<path fill="none" stroke="midnightblue" d="M378.05,-168.44C413.2,-158.4 471.17,-141.84 506.57,-131.73"/>
<polygon fill="midnightblue" stroke="midnightblue" points="507.69,-135.04 516.35,-128.93 505.77,-128.31 507.69,-135.04"/>
</g>
<!-- Node4 -->
<g id="node4" class="node">
<title>Node4</title>
<g id="a_node4"><a xlink:href="max30001g__defs_8h.html" target="_top" xlink:title=" ">
<polygon fill="white" stroke="black" points="351.61,-0.5 351.61,-19.5 450.61,-19.5 450.61,-0.5 351.61,-0.5"/>
<text text-anchor="middle" x="401.11" y="-7.5" font-family="Helvetica,sans-Serif" font-size="10.00">max30001g_defs.h</text>
</a>
</g>
</g>
<!-- Node1&#45;&gt;Node4 -->
<g id="edge3" class="edge">
<title>Node1&#45;&gt;Node4</title>
<path fill="none" stroke="midnightblue" d="M366.37,-168.35C394.59,-153.83 447.77,-121.6 469.11,-76 479.45,-53.9 454.55,-35.45 432.03,-23.93"/>
<polygon fill="midnightblue" stroke="midnightblue" points="433.48,-20.74 422.96,-19.56 430.45,-27.05 433.48,-20.74"/>
</g>
<!-- Node5 -->
<g id="node5" class="node">
<title>Node5</title>
<g id="a_node5"><a xlink:href="max30001g__regs__typedefs_8h.html" target="_top" xlink:title=" ">
<polygon fill="white" stroke="black" points="16.11,-56.5 16.11,-75.5 158.11,-75.5 158.11,-56.5 16.11,-56.5"/>
<text text-anchor="middle" x="87.11" y="-63.5" font-family="Helvetica,sans-Serif" font-size="10.00">max30001g_regs_typedefs.h</text>
</a>
</g>
</g>
<!-- Node1&#45;&gt;Node5 -->
<g id="edge4" class="edge">
<title>Node1&#45;&gt;Node5</title>
<path fill="none" stroke="midnightblue" d="M321.74,-168.49C296.03,-159.98 255.97,-146.15 222.11,-132 183.2,-115.74 139.44,-94.01 112.57,-80.26"/>
<polygon fill="midnightblue" stroke="midnightblue" points="113.97,-77.04 103.48,-75.58 110.76,-83.27 113.97,-77.04"/>
</g>
<!-- Node6 -->
<g id="node6" class="node">
<title>Node6</title>
<g id="a_node6"><a xlink:href="max30001g__typedefs_8h.html" target="_top" xlink:title=" ">
<polygon fill="white" stroke="black" points="342.11,-56.5 342.11,-75.5 460.11,-75.5 460.11,-56.5 342.11,-56.5"/>
<text text-anchor="middle" x="401.11" y="-63.5" font-family="Helvetica,sans-Serif" font-size="10.00">max30001g_typedefs.h</text>
</a>
</g>
</g>
<!-- Node1&#45;&gt;Node6 -->
<g id="edge6" class="edge">
<title>Node1&#45;&gt;Node6</title>
<path fill="none" stroke="midnightblue" d="M352.26,-168.37C360.93,-150.38 381.09,-108.55 392.61,-84.63"/>
<polygon fill="midnightblue" stroke="midnightblue" points="395.78,-86.12 396.97,-75.59 389.47,-83.08 395.78,-86.12"/>
</g>
<!-- Node7 -->
<g id="node7" class="node">
<title>Node7</title>
<g id="a_node7"><a xlink:href="max30001g__globals_8h.html" target="_top" xlink:title=" ">
<polygon fill="white" stroke="black" points="230.61,-112.5 230.61,-131.5 341.61,-131.5 341.61,-112.5 230.61,-112.5"/>
<text text-anchor="middle" x="286.11" y="-119.5" font-family="Helvetica,sans-Serif" font-size="10.00">max30001g_globals.h</text>
</a>
</g>
</g>
<!-- Node1&#45;&gt;Node7 -->
<g id="edge9" class="edge">
<title>Node1&#45;&gt;Node7</title>
<path fill="none" stroke="midnightblue" d="M338.14,-168.32C328.98,-160.34 315.17,-148.31 304.08,-138.65"/>
<polygon fill="midnightblue" stroke="midnightblue" points="306.09,-135.76 296.25,-131.83 301.49,-141.04 306.09,-135.76"/>
</g>
<!-- Node5&#45;&gt;Node2 -->
<g id="edge5" class="edge">
<title>Node5&#45;&gt;Node2</title>
<path fill="none" stroke="midnightblue" d="M102.37,-56.32C117.33,-47.82 140.36,-34.73 157.83,-24.8"/>
<polygon fill="midnightblue" stroke="midnightblue" points="159.92,-27.64 166.88,-19.65 156.46,-21.55 159.92,-27.64"/>
</g>
<!-- Node6&#45;&gt;Node2 -->
<g id="edge7" class="edge">
<title>Node6&#45;&gt;Node2</title>
<path fill="none" stroke="midnightblue" d="M366.4,-56.44C325.38,-46.33 257.51,-29.59 216.58,-19.5"/>
<polygon fill="midnightblue" stroke="midnightblue" points="217.34,-16.08 206.79,-17.09 215.66,-22.88 217.34,-16.08"/>
</g>
<!-- Node6&#45;&gt;Node4 -->
<g id="edge8" class="edge">
<title>Node6&#45;&gt;Node4</title>
<path fill="none" stroke="midnightblue" d="M401.11,-56.08C401.11,-49.01 401.11,-38.86 401.11,-29.99"/>
<polygon fill="midnightblue" stroke="midnightblue" points="404.61,-29.75 401.11,-19.75 397.61,-29.75 404.61,-29.75"/>
</g>
<!-- Node7&#45;&gt;Node2 -->
<g id="edge10" class="edge">
<title>Node7&#45;&gt;Node2</title>
<path fill="none" stroke="midnightblue" d="M283.81,-112.08C279.97,-98.61 271.16,-72.88 256.11,-56 244.04,-42.47 226.92,-31.7 212.19,-24.1"/>
<polygon fill="midnightblue" stroke="midnightblue" points="213.45,-20.82 202.93,-19.56 210.36,-27.1 213.45,-20.82"/>
</g>
<!-- Node7&#45;&gt;Node4 -->
<g id="edge12" class="edge">
<title>Node7&#45;&gt;Node4</title>
<path fill="none" stroke="midnightblue" d="M291.03,-112.24C298.78,-99 314.82,-73.55 333.11,-56 345.89,-43.74 362.42,-32.71 375.98,-24.64"/>
<polygon fill="midnightblue" stroke="midnightblue" points="377.9,-27.58 384.81,-19.55 374.4,-21.51 377.9,-27.58"/>
</g>
<!-- Node7&#45;&gt;Node5 -->
<g id="edge14" class="edge">
<title>Node7&#45;&gt;Node5</title>
<path fill="none" stroke="midnightblue" d="M254.57,-112.44C220.51,-103.2 166.1,-88.44 128.59,-78.26"/>
<polygon fill="midnightblue" stroke="midnightblue" points="129.06,-74.76 118.49,-75.52 127.22,-81.51 129.06,-74.76"/>
</g>
<!-- Node7&#45;&gt;Node6 -->
<g id="edge13" class="edge">
<title>Node7&#45;&gt;Node6</title>
<path fill="none" stroke="midnightblue" d="M304.33,-112.44C323,-103.68 352.26,-89.94 373.72,-79.86"/>
<polygon fill="midnightblue" stroke="midnightblue" points="375.4,-82.93 382.97,-75.52 372.43,-76.6 375.4,-82.93"/>
</g>
<!-- Node8 -->
<g id="node8" class="node">
<title>Node8</title>
<g id="a_node8"><a xlink:title=" ">
<polygon fill="white" stroke="#bfbfbf" points="176.61,-56.5 176.61,-75.5 247.61,-75.5 247.61,-56.5 176.61,-56.5"/>
<text text-anchor="middle" x="212.11" y="-63.5" font-family="Helvetica,sans-Serif" font-size="10.00">RingBuffer.h</text>
</a>
</g>
</g>
<!-- Node7&#45;&gt;Node8 -->
<g id="edge11" class="edge">
<title>Node7&#45;&gt;Node8</title>
<path fill="none" stroke="midnightblue" d="M274.22,-112.32C262.96,-104.11 245.82,-91.6 232.4,-81.81"/>
<polygon fill="midnightblue" stroke="midnightblue" points="234.35,-78.9 224.21,-75.83 230.23,-84.56 234.35,-78.9"/>
</g>
</g>
</svg>
        <g id="navigator" transform="translate(0 0)" fill="#404254">
                <rect fill="#f2f5e9" fill-opacity="0.5" stroke="#606060" stroke-width=".5" x="0" y="0" width="60" height="60"/>
                <use id="zoomplus" xlink:href="#zoomPlus" x="17" y="9" onmousedown="handleZoom(evt,'in')"/>
                <use id="zoomminus" xlink:href="#zoomMin" x="42" y="9" onmousedown="handleZoom(evt,'out')"/>
                <use id="reset" xlink:href="#resetDef" x="30" y="36" onmousedown="handleReset()"/>
                <g id="arrowUp" xlink:href="#dirArrow" transform="translate(30 24)" onmousedown="handlePan(0,-1)">
                  <use xlink:href="#rim" fill="#404040">
                        <set attributeName="fill" to="#808080" begin="arrowUp.mouseover" end="arrowUp.mouseout"/>
                  </use>
                  <path fill="none" stroke="white" stroke-width="1.5" d="M0,-3.0v7 M-2.5,-0.5L0,-3.0L2.5,-0.5"/>
                </g>
                <g id="arrowRight" xlink:href="#dirArrow" transform="rotate(90) translate(36 -43)" onmousedown="handlePan(1,0)">
                  <use xlink:href="#rim" fill="#404040">
                        <set attributeName="fill" to="#808080" begin="arrowRight.mouseover" end="arrowRight.mouseout"/>
                  </use>
                  <path fill="none" stroke="white" stroke-width="1.5" d="M0,-3.0v7 M-2.5,-0.5L0,-3.0L2.5,-0.5"/>
                </g>
                <g id="arrowDown" xlink:href="#dirArrow" transform="rotate(180) translate(-30 -48)" onmousedown="handlePan(0,1)">
                  <use xlink:href="#rim" fill="#404040">
                        <set attributeName="fill" to="#808080" begin="arrowDown.mouseover" end="arrowDown.mouseout"/>
                  </use>
                  <path fill="none" stroke="white" stroke-width="1.5" d="M0,-3.0v7 M-2.5,-0.5L0,-3.0L2.5,-0.5"/>
                </g>
                <g id="arrowLeft" xlink:href="#dirArrow" transform="rotate(270) translate(-36 17)" onmousedown="handlePan(-1,0)">
                  <use xlink:href="#rim" fill="#404040">
                        <set attributeName="fill" to="#808080" begin="arrowLeft.mouseover" end="arrowLeft.mouseout"/>
                  </use>
                  <path fill="none" stroke="white" stroke-width="1.5" d="M0,-3.0v7 M-2.5,-0.5L0,-3.0L2.5,-0.5"/>
                </g>
        </g>
        <svg viewBox="0 0 15 15" width="100%" height="30px" preserveAspectRatio="xMaxYMin meet">
         <g id="arrow_out" transform="scale(0.3 0.3)">
          <a xlink:href="max30001g_8h__incl_org.svg" target="_base">
           <rect id="button" ry="5" rx="5" y="6" x="6" height="38" width="38"
                fill="#f2f5e9" fill-opacity="0.5" stroke="#606060" stroke-width="1.0"/>
           <path id="arrow"
             d="M 11.500037,31.436501 C 11.940474,20.09759 22.043105,11.32322 32.158766,21.979434 L 37.068811,17.246167 C 37.068811,17.246167 37.088388,32 37.088388,32 L 22.160133,31.978069 C 22.160133,31.978069 26.997745,27.140456 26.997745,27.140456 C 18.528582,18.264221 13.291696,25.230495 11.500037,31.436501 z"
             style="fill:#404040;"/>
          </a>
         </g>
        </svg>
</svg>
