<?xml version="1.0" encoding="UTF-8" standalone="no"?>
<!DOCTYPE svg PUBLIC "-//W3C//DTD SVG 1.1//EN"
 "http://www.w3.org/Graphics/SVG/1.1/DTD/svg11.dtd">
<!-- Generated by graphviz version 2.43.0 (0)
 -->
<!-- Title: src/max30001g_typedefs.h Pages: 1 -->
<svg width="1643pt" height="207pt"
 viewBox="0.00 0.00 1643.00 207.00" xmlns="http://www.w3.org/2000/svg" xmlns:xlink="http://www.w3.org/1999/xlink">
<g id="graph0" class="graph" transform="scale(1 1) rotate(0) translate(4 203)">
<title>src/max30001g_typedefs.h</title>
<polygon fill="white" stroke="transparent" points="-4,4 -4,-203 1639,-203 1639,4 -4,4"/>
<!-- Node1 -->
<g id="node1" class="node">
<title>Node1</title>
<g id="a_node1"><a xlink:title=" ">
<polygon fill="#bfbfbf" stroke="black" points="777,-179.5 777,-198.5 911,-198.5 911,-179.5 777,-179.5"/>
<text text-anchor="middle" x="844" y="-186.5" font-family="Helvetica,sans-Serif" font-size="10.00">src/max30001g_typedefs.h</text>
</a>
</g>
</g>
<!-- Node2 -->
<g id="node2" class="node">
<title>Node2</title>
<g id="a_node2"><a xlink:href="max30001g_8h.html" target="_top" xlink:title=" ">
<polygon fill="white" stroke="black" points="752,-67.5 752,-86.5 844,-86.5 844,-67.5 752,-67.5"/>
<text text-anchor="middle" x="798" y="-74.5" font-family="Helvetica,sans-Serif" font-size="10.00">src/max30001g.h</text>
</a>
</g>
</g>
<!-- Node1&#45;&gt;Node2 -->
<g id="edge1" class="edge">
<title>Node1&#45;&gt;Node2</title>
<path fill="none" stroke="midnightblue" d="M832.27,-170.82C827.07,-162.65 821.2,-152.6 817,-143 808.52,-123.61 802.57,-99.35 799.79,-86.66"/>
<polygon fill="midnightblue" stroke="midnightblue" points="829.5,-172.97 837.92,-179.4 835.34,-169.12 829.5,-172.97"/>
</g>
<!-- Node14 -->
<g id="node14" class="node">
<title>Node14</title>
<g id="a_node14"><a xlink:href="max30001g__globals_8h.html" target="_top" xlink:title=" ">
<polygon fill="white" stroke="black" points="826,-123.5 826,-142.5 954,-142.5 954,-123.5 826,-123.5"/>
<text text-anchor="middle" x="890" y="-130.5" font-family="Helvetica,sans-Serif" font-size="10.00">src/max30001g_globals.h</text>
</a>
</g>
</g>
<!-- Node1&#45;&gt;Node14 -->
<g id="edge13" class="edge">
<title>Node1&#45;&gt;Node14</title>
<path fill="none" stroke="midnightblue" d="M858.11,-171.43C866.18,-161.97 875.96,-150.48 882.55,-142.75"/>
<polygon fill="midnightblue" stroke="midnightblue" points="855.42,-169.2 851.6,-179.08 860.75,-173.74 855.42,-169.2"/>
</g>
<!-- Node3 -->
<g id="node3" class="node">
<title>Node3</title>
<g id="a_node3"><a xlink:href="max30001g_8cpp.html" target="_top" xlink:title=" ">
<polygon fill="white" stroke="black" points="0,-6 0,-25 102,-25 102,-6 0,-6"/>
<text text-anchor="middle" x="51" y="-13" font-family="Helvetica,sans-Serif" font-size="10.00">src/max30001g.cpp</text>
</a>
</g>
</g>
<!-- Node2&#45;&gt;Node3 -->
<g id="edge2" class="edge">
<title>Node2&#45;&gt;Node3</title>
<path fill="none" stroke="midnightblue" d="M741.67,-75.57C623.89,-73.97 343.27,-66.4 111,-31 101.47,-29.55 91.22,-27.32 81.94,-25.05"/>
<polygon fill="midnightblue" stroke="midnightblue" points="741.84,-79.08 751.88,-75.7 741.92,-72.08 741.84,-79.08"/>
</g>
<!-- Node4 -->
<g id="node4" class="node">
<title>Node4</title>
<g id="a_node4"><a xlink:href="max30001g__calibration_8cpp.html" target="_top" xlink:title=" ">
<polygon fill="white" stroke="black" points="120,-6 120,-25 272,-25 272,-6 120,-6"/>
<text text-anchor="middle" x="196" y="-13" font-family="Helvetica,sans-Serif" font-size="10.00">src/max30001g_calibration.cpp</text>
</a>
</g>
</g>
<!-- Node2&#45;&gt;Node4 -->
<g id="edge3" class="edge">
<title>Node2&#45;&gt;Node4</title>
<path fill="none" stroke="midnightblue" d="M741.61,-72.61C646.41,-66.56 447.88,-52.46 281,-31 268.23,-29.36 254.45,-27.18 241.77,-25.02"/>
<polygon fill="midnightblue" stroke="midnightblue" points="741.67,-76.12 751.87,-73.26 742.11,-69.14 741.67,-76.12"/>
</g>
<!-- Node5 -->
<g id="node5" class="node">
<title>Node5</title>
<g id="a_node5"><a xlink:href="max30001g__comm_8cpp.html" target="_top" xlink:title=" ">
<polygon fill="white" stroke="black" points="290,-6 290,-25 424,-25 424,-6 290,-6"/>
<text text-anchor="middle" x="357" y="-13" font-family="Helvetica,sans-Serif" font-size="10.00">src/max30001g_comm.cpp</text>
</a>
</g>
</g>
<!-- Node2&#45;&gt;Node5 -->
<g id="edge4" class="edge">
<title>Node2&#45;&gt;Node5</title>
<path fill="none" stroke="midnightblue" d="M741.58,-70.21C669.73,-62.57 541.82,-48.07 433,-31 421.99,-29.27 410.12,-27.14 399.12,-25.05"/>
<polygon fill="midnightblue" stroke="midnightblue" points="741.46,-73.72 751.77,-71.29 742.19,-66.76 741.46,-73.72"/>
</g>
<!-- Node6 -->
<g id="node6" class="node">
<title>Node6</title>
<g id="a_node6"><a xlink:href="max30001g__configure__bioz_8cpp.html" target="_top" xlink:title=" ">
<polygon fill="white" stroke="black" points="442,-0.5 442,-30.5 570,-30.5 570,-0.5 442,-0.5"/>
<text text-anchor="start" x="450" y="-18.5" font-family="Helvetica,sans-Serif" font-size="10.00">src/max30001g_configure</text>
<text text-anchor="middle" x="506" y="-7.5" font-family="Helvetica,sans-Serif" font-size="10.00">_bioz.cpp</text>
</a>
</g>
</g>
<!-- Node2&#45;&gt;Node6 -->
<g id="edge5" class="edge">
<title>Node2&#45;&gt;Node6</title>
<path fill="none" stroke="midnightblue" d="M746.06,-65.42C696.88,-55.4 622.91,-40.32 570.09,-29.56"/>
<polygon fill="midnightblue" stroke="midnightblue" points="745.67,-68.91 756.16,-67.48 747.06,-62.05 745.67,-68.91"/>
</g>
<!-- Node7 -->
<g id="node7" class="node">
<title>Node7</title>
<g id="a_node7"><a xlink:href="max30001g__configure__ecg_8cpp.html" target="_top" xlink:title=" ">
<polygon fill="white" stroke="black" points="588,-0.5 588,-30.5 716,-30.5 716,-0.5 588,-0.5"/>
<text text-anchor="start" x="596" y="-18.5" font-family="Helvetica,sans-Serif" font-size="10.00">src/max30001g_configure</text>
<text text-anchor="middle" x="652" y="-7.5" font-family="Helvetica,sans-Serif" font-size="10.00">_ecg.cpp</text>
</a>
</g>
</g>
<!-- Node2&#45;&gt;Node7 -->
<g id="edge6" class="edge">
<title>Node2&#45;&gt;Node7</title>
<path fill="none" stroke="midnightblue" d="M767.55,-63.59C743.88,-53.94 711.03,-40.56 686.41,-30.52"/>
<polygon fill="midnightblue" stroke="midnightblue" points="766.5,-66.94 777.08,-67.48 769.14,-60.46 766.5,-66.94"/>
</g>
<!-- Node8 -->
<g id="node8" class="node">
<title>Node8</title>
<g id="a_node8"><a xlink:href="max30001g__configure__leads_8cpp.html" target="_top" xlink:title=" ">
<polygon fill="white" stroke="black" points="734,-0.5 734,-30.5 862,-30.5 862,-0.5 734,-0.5"/>
<text text-anchor="start" x="742" y="-18.5" font-family="Helvetica,sans-Serif" font-size="10.00">src/max30001g_configure</text>
<text text-anchor="middle" x="798" y="-7.5" font-family="Helvetica,sans-Serif" font-size="10.00">_leads.cpp</text>
</a>
</g>
</g>
<!-- Node2&#45;&gt;Node8 -->
<g id="edge7" class="edge">
<title>Node2&#45;&gt;Node8</title>
<path fill="none" stroke="midnightblue" d="M798,-57.23C798,-48.59 798,-38.5 798,-30.52"/>
<polygon fill="midnightblue" stroke="midnightblue" points="794.5,-57.48 798,-67.48 801.5,-57.48 794.5,-57.48"/>
</g>
<!-- Node9 -->
<g id="node9" class="node">
<title>Node9</title>
<g id="a_node9"><a xlink:href="max30001g__configure__rtor_8cpp.html" target="_top" xlink:title=" ">
<polygon fill="white" stroke="black" points="880,-0.5 880,-30.5 1008,-30.5 1008,-0.5 880,-0.5"/>
<text text-anchor="start" x="888" y="-18.5" font-family="Helvetica,sans-Serif" font-size="10.00">src/max30001g_configure</text>
<text text-anchor="middle" x="944" y="-7.5" font-family="Helvetica,sans-Serif" font-size="10.00">_rtor.cpp</text>
</a>
</g>
</g>
<!-- Node2&#45;&gt;Node9 -->
<g id="edge8" class="edge">
<title>Node2&#45;&gt;Node9</title>
<path fill="none" stroke="midnightblue" d="M828.45,-63.59C852.12,-53.94 884.97,-40.56 909.59,-30.52"/>
<polygon fill="midnightblue" stroke="midnightblue" points="826.86,-60.46 818.92,-67.48 829.5,-66.94 826.86,-60.46"/>
</g>
<!-- Node10 -->
<g id="node10" class="node">
<title>Node10</title>
<g id="a_node10"><a xlink:href="max30001g__interrupt_8cpp.html" target="_top" xlink:title=" ">
<polygon fill="white" stroke="black" points="1026.5,-6 1026.5,-25 1169.5,-25 1169.5,-6 1026.5,-6"/>
<text text-anchor="middle" x="1098" y="-13" font-family="Helvetica,sans-Serif" font-size="10.00">src/max30001g_interrupt.cpp</text>
</a>
</g>
</g>
<!-- Node2&#45;&gt;Node10 -->
<g id="edge9" class="edge">
<title>Node2&#45;&gt;Node10</title>
<path fill="none" stroke="midnightblue" d="M851.07,-65.47C909.21,-53.94 1001.34,-35.67 1055.1,-25.01"/>
<polygon fill="midnightblue" stroke="midnightblue" points="850.11,-62.1 840.98,-67.48 851.47,-68.96 850.11,-62.1"/>
</g>
<!-- Node11 -->
<g id="node11" class="node">
<title>Node11</title>
<g id="a_node11"><a xlink:href="max30001g__readdata_8cpp.html" target="_top" xlink:title=" ">
<polygon fill="white" stroke="black" points="1187.5,-6 1187.5,-25 1332.5,-25 1332.5,-6 1187.5,-6"/>
<text text-anchor="middle" x="1260" y="-13" font-family="Helvetica,sans-Serif" font-size="10.00">src/max30001g_readdata.cpp</text>
</a>
</g>
</g>
<!-- Node2&#45;&gt;Node11 -->
<g id="edge10" class="edge">
<title>Node2&#45;&gt;Node11</title>
<path fill="none" stroke="midnightblue" d="M854.34,-66.88C999.15,-47.42 1037.97,-51.39 1179,-31 1190.88,-29.28 1203.68,-27.13 1215.52,-25.02"/>
<polygon fill="midnightblue" stroke="midnightblue" points="853.62,-63.45 844.19,-68.26 854.57,-70.38 853.62,-63.45"/>
</g>
<!-- Node12 -->
<g id="node12" class="node">
<title>Node12</title>
<g id="a_node12"><a xlink:href="max30001g__regs_8cpp.html" target="_top" xlink:title=" ">
<polygon fill="white" stroke="black" points="1351,-6 1351,-25 1477,-25 1477,-6 1351,-6"/>
<text text-anchor="middle" x="1414" y="-13" font-family="Helvetica,sans-Serif" font-size="10.00">src/max30001g_regs.cpp</text>
</a>
</g>
</g>
<!-- Node2&#45;&gt;Node12 -->
<g id="edge11" class="edge">
<title>Node2&#45;&gt;Node12</title>
<path fill="none" stroke="midnightblue" d="M854.28,-66.96C1071.16,-41.95 1129.36,-60.12 1342,-31 1353.12,-29.48 1365.1,-27.29 1376.04,-25.07"/>
<polygon fill="midnightblue" stroke="midnightblue" points="853.7,-63.5 844.17,-68.14 854.51,-70.45 853.7,-63.5"/>
</g>
<!-- Node13 -->
<g id="node13" class="node">
<title>Node13</title>
<g id="a_node13"><a xlink:href="max30001g__system_8cpp.html" target="_top" xlink:title=" ">
<polygon fill="white" stroke="black" points="1495,-6 1495,-25 1635,-25 1635,-6 1495,-6"/>
<text text-anchor="middle" x="1565" y="-13" font-family="Helvetica,sans-Serif" font-size="10.00">src/max30001g_system.cpp</text>
</a>
</g>
</g>
<!-- Node2&#45;&gt;Node13 -->
<g id="edge12" class="edge">
<title>Node2&#45;&gt;Node13</title>
<path fill="none" stroke="midnightblue" d="M854.23,-66.99C1134.84,-36.86 1209.49,-64.11 1486,-31 1498.46,-29.51 1511.92,-27.27 1524.15,-25"/>
<polygon fill="midnightblue" stroke="midnightblue" points="853.73,-63.52 844.17,-68.08 854.49,-70.48 853.73,-63.52"/>
</g>
<!-- Node14&#45;&gt;Node2 -->
<g id="edge14" class="edge">
<title>Node14&#45;&gt;Node2</title>
<path fill="none" stroke="midnightblue" d="M866.45,-118.18C849.52,-108.24 827.22,-95.15 812.74,-86.65"/>
<polygon fill="midnightblue" stroke="midnightblue" points="864.82,-121.28 875.22,-123.32 868.37,-115.24 864.82,-121.28"/>
</g>
<!-- Node15 -->
<g id="node15" class="node">
<title>Node15</title>
<g id="a_node15"><a xlink:href="max30001g__globals_8cpp.html" target="_top" xlink:title=" ">
<polygon fill="white" stroke="black" points="862,-67.5 862,-86.5 1000,-86.5 1000,-67.5 862,-67.5"/>
<text text-anchor="middle" x="931" y="-74.5" font-family="Helvetica,sans-Serif" font-size="10.00">src/max30001g_globals.cpp</text>
</a>
</g>
</g>
<!-- Node14&#45;&gt;Node15 -->
<g id="edge15" class="edge">
<title>Node14&#45;&gt;Node15</title>
<path fill="none" stroke="midnightblue" d="M903.02,-114.86C910.12,-105.5 918.6,-94.33 924.36,-86.75"/>
<polygon fill="midnightblue" stroke="midnightblue" points="900.03,-113 896.77,-123.08 905.61,-117.24 900.03,-113"/>
</g>
</g>
</svg>
