<?xml version="1.0" encoding="UTF-8" standalone="no"?>
<!DOCTYPE svg PUBLIC "-//W3C//DTD SVG 1.1//EN"
 "http://www.w3.org/Graphics/SVG/1.1/DTD/svg11.dtd">
<!-- Generated by graphviz version 2.43.0 (0)
 -->
<!-- Title: src/max30001g_comm.cpp Pages: 1 -->
<svg width="597pt" height="247pt"
 viewBox="0.00 0.00 596.59 247.00" xmlns="http://www.w3.org/2000/svg" xmlns:xlink="http://www.w3.org/1999/xlink">
<g id="graph0" class="graph" transform="scale(1 1) rotate(0) translate(4 243)">
<title>src/max30001g_comm.cpp</title>
<!-- Node1 -->
<g id="Node000001" class="node">
<title>Node1</title>
<g id="a_Node000001"><a xlink:title=" ">
<polygon fill="#999999" stroke="#666666" points="295.5,-239 147.5,-239 147.5,-220 295.5,-220 295.5,-239"/>
<text text-anchor="middle" x="221.5" y="-227" font-family="Helvetica,sans-Serif" font-size="10.00">src/max30001g_comm.cpp</text>
</a>
</g>
</g>
<!-- Node2 -->
<g id="Node000002" class="node">
<title>Node2</title>
<g id="a_Node000002"><a xlink:title=" ">
<polygon fill="#e0e0e0" stroke="#999999" points="41,-129 0,-129 0,-110 41,-110 41,-129"/>
<text text-anchor="middle" x="20.5" y="-117" font-family="Helvetica,sans-Serif" font-size="10.00">SPI.h</text>
</a>
</g>
</g>
<!-- Node1&#45;&gt;Node2 -->
<g id="edge1_Node000001_Node000002" class="edge">
<title>Node1&#45;&gt;Node2</title>
<g id="a_edge1_Node000001_Node000002"><a xlink:title=" ">
<path fill="none" stroke="#63b8ff" d="M201.33,-219.92C181.69,-211.39 151.12,-197.63 125.5,-184 96.01,-168.31 63.26,-148.02 42.3,-134.65"/>
<polygon fill="#63b8ff" stroke="#63b8ff" points="44.12,-131.66 33.82,-129.2 40.34,-137.55 44.12,-131.66"/>
</a>
</g>
</g>
<!-- Node3 -->
<g id="Node000003" class="node">
<title>Node3</title>
<g id="a_Node000003"><a xlink:title=" ">
<polygon fill="#e0e0e0" stroke="#999999" points="299,-184 236,-184 236,-165 299,-165 299,-184"/>
<text text-anchor="middle" x="267.5" y="-172" font-family="Helvetica,sans-Serif" font-size="10.00">Arduino.h</text>
</a>
</g>
</g>
<!-- Node1&#45;&gt;Node3 -->
<g id="edge2_Node000001_Node000003" class="edge">
<title>Node1&#45;&gt;Node3</title>
<g id="a_edge2_Node000001_Node000003"><a xlink:title=" ">
<path fill="none" stroke="#63b8ff" d="M229.1,-219.75C235.66,-212.18 245.32,-201.05 253.31,-191.84"/>
<polygon fill="#63b8ff" stroke="#63b8ff" points="256.13,-193.94 260.05,-184.09 250.85,-189.35 256.13,-193.94"/>
</a>
</g>
</g>
<!-- Node4 -->
<g id="Node000004" class="node">
<title>Node4</title>
<g id="a_Node000004"><a xlink:title=" ">
<polygon fill="#e0e0e0" stroke="#999999" points="373.5,-184 317.5,-184 317.5,-165 373.5,-165 373.5,-184"/>
<text text-anchor="middle" x="345.5" y="-172" font-family="Helvetica,sans-Serif" font-size="10.00">logger.h</text>
</a>
</g>
</g>
<!-- Node1&#45;&gt;Node4 -->
<g id="edge3_Node000001_Node000004" class="edge">
<title>Node1&#45;&gt;Node4</title>
<g id="a_edge3_Node000001_Node000004"><a xlink:title=" ">
<path fill="none" stroke="#63b8ff" d="M241.42,-219.98C261.55,-211.38 292.88,-197.99 315.91,-188.15"/>
<polygon fill="#63b8ff" stroke="#63b8ff" points="317.4,-191.32 325.21,-184.17 314.64,-184.88 317.4,-191.32"/>
</a>
</g>
</g>
<!-- Node5 -->
<g id="Node000005" class="node">
<title>Node5</title>
<g id="a_Node000005"><a xlink:href="max30001g_8h.html" target="_top" xlink:title=" ">
<polygon fill="white" stroke="#666666" points="218,-184 135,-184 135,-165 218,-165 218,-184"/>
<text text-anchor="middle" x="176.5" y="-172" font-family="Helvetica,sans-Serif" font-size="10.00">max30001g.h</text>
</a>
</g>
</g>
<!-- Node1&#45;&gt;Node5 -->
<g id="edge4_Node000001_Node000005" class="edge">
<title>Node1&#45;&gt;Node5</title>
<g id="a_edge4_Node000001_Node000005"><a xlink:title=" ">
<path fill="none" stroke="#63b8ff" d="M214.07,-219.75C207.65,-212.18 198.19,-201.05 190.38,-191.84"/>
<polygon fill="#63b8ff" stroke="#63b8ff" points="192.93,-189.45 183.79,-184.09 187.6,-193.98 192.93,-189.45"/>
</a>
</g>
</g>
<!-- Node5&#45;&gt;Node2 -->
<g id="edge6_Node000005_Node000002" class="edge">
<title>Node5&#45;&gt;Node2</title>
<g id="a_edge6_Node000005_Node000002"><a xlink:title=" ">
<path fill="none" stroke="#63b8ff" d="M151.44,-164.98C124.01,-155.67 80.05,-140.73 50.73,-130.77"/>
<polygon fill="#63b8ff" stroke="#63b8ff" points="51.61,-127.37 41.02,-127.47 49.36,-134 51.61,-127.37"/>
</a>
</g>
</g>
<!-- Node6 -->
<g id="Node000006" class="node">
<title>Node6</title>
<g id="a_Node000006"><a xlink:title=" ">
<polygon fill="#e0e0e0" stroke="#999999" points="304,-19 251,-19 251,0 304,0 304,-19"/>
<text text-anchor="middle" x="277.5" y="-7" font-family="Helvetica,sans-Serif" font-size="10.00">stdint.h</text>
</a>
</g>
</g>
<!-- Node5&#45;&gt;Node6 -->
<g id="edge5_Node000005_Node000006" class="edge">
<title>Node5&#45;&gt;Node6</title>
<g id="a_edge5_Node000005_Node000006"><a xlink:title=" ">
<path fill="none" stroke="#63b8ff" d="M161.14,-164.74C128.29,-144.9 56.68,-95.18 88.5,-55 107.16,-31.44 191.52,-19.11 241.01,-13.8"/>
<polygon fill="#63b8ff" stroke="#63b8ff" points="241.41,-17.27 251,-12.77 240.69,-10.31 241.41,-17.27"/>
</a>
</g>
</g>
<!-- Node7 -->
<g id="Node000007" class="node">
<title>Node7</title>
<g id="a_Node000007"><a xlink:href="max30001g__defs_8h.html" target="_top" xlink:title=" ">
<polygon fill="white" stroke="#666666" points="564.5,-19 454.5,-19 454.5,0 564.5,0 564.5,-19"/>
<text text-anchor="middle" x="509.5" y="-7" font-family="Helvetica,sans-Serif" font-size="10.00">max30001g_defs.h</text>
</a>
</g>
</g>
<!-- Node5&#45;&gt;Node7 -->
<g id="edge7_Node000005_Node000007" class="edge">
<title>Node5&#45;&gt;Node7</title>
<g id="a_edge7_Node000005_Node000007"><a xlink:title=" ">
<path fill="none" stroke="#63b8ff" d="M218.24,-166.4C221.04,-165.92 223.81,-165.45 226.5,-165 388.38,-137.69 491.56,-209.33 584.5,-74 599.12,-52.71 570.22,-34.39 544.15,-22.97"/>
<polygon fill="#63b8ff" stroke="#63b8ff" points="545.34,-19.68 534.76,-19.09 542.67,-26.15 545.34,-19.68"/>
</a>
</g>
</g>
<!-- Node8 -->
<g id="Node000008" class="node">
<title>Node8</title>
<g id="a_Node000008"><a xlink:href="max30001g__regs__typedefs_8h.html" target="_top" xlink:title=" ">
<polygon fill="white" stroke="#666666" points="255.5,-74 97.5,-74 97.5,-55 255.5,-55 255.5,-74"/>
<text text-anchor="middle" x="176.5" y="-62" font-family="Helvetica,sans-Serif" font-size="10.00">max30001g_regs_typedefs.h</text>
</a>
</g>
</g>
<!-- Node5&#45;&gt;Node8 -->
<g id="edge8_Node000005_Node000008" class="edge">
<title>Node5&#45;&gt;Node8</title>
<g id="a_edge8_Node000005_Node000008"><a xlink:title=" ">
<path fill="none" stroke="#63b8ff" d="M176.5,-164.66C176.5,-147.17 176.5,-107.8 176.5,-84.27"/>
<polygon fill="#63b8ff" stroke="#63b8ff" points="180,-84.16 176.5,-74.16 173,-84.16 180,-84.16"/>
</a>
</g>
</g>
<!-- Node9 -->
<g id="Node000009" class="node">
<title>Node9</title>
<g id="a_Node000009"><a xlink:href="max30001g__typedefs_8h.html" target="_top" xlink:title=" ">
<polygon fill="white" stroke="#666666" points="575,-74 444,-74 444,-55 575,-55 575,-74"/>
<text text-anchor="middle" x="509.5" y="-62" font-family="Helvetica,sans-Serif" font-size="10.00">max30001g_typedefs.h</text>
</a>
</g>
</g>
<!-- Node5&#45;&gt;Node9 -->
<g id="edge10_Node000005_Node000009" class="edge">
<title>Node5&#45;&gt;Node9</title>
<g id="a_edge10_Node000005_Node000009"><a xlink:title=" ">
<path fill="none" stroke="#63b8ff" d="M218.01,-166.45C280.14,-155.75 391.96,-135.95 409.5,-129 440.17,-116.85 471.67,-94.99 490.92,-80.36"/>
<polygon fill="#63b8ff" stroke="#63b8ff" points="493.09,-83.1 498.85,-74.21 488.81,-77.57 493.09,-83.1"/>
</a>
</g>
</g>
<!-- Node10 -->
<g id="Node000010" class="node">
<title>Node10</title>
<g id="a_Node000010"><a xlink:href="max30001g__globals_8h.html" target="_top" xlink:title=" ">
<polygon fill="white" stroke="#666666" points="400.5,-129 276.5,-129 276.5,-110 400.5,-110 400.5,-129"/>
<text text-anchor="middle" x="338.5" y="-117" font-family="Helvetica,sans-Serif" font-size="10.00">max30001g_globals.h</text>
</a>
</g>
</g>
<!-- Node5&#45;&gt;Node10 -->
<g id="edge13_Node000005_Node000010" class="edge">
<title>Node5&#45;&gt;Node10</title>
<g id="a_edge13_Node000005_Node000010"><a xlink:title=" ">
<path fill="none" stroke="#63b8ff" d="M202.53,-164.98C229.61,-156.13 272.21,-142.19 302.51,-132.28"/>
<polygon fill="#63b8ff" stroke="#63b8ff" points="303.85,-135.52 312.27,-129.08 301.68,-128.87 303.85,-135.52"/>
</a>
</g>
</g>
<!-- Node8&#45;&gt;Node6 -->
<g id="edge9_Node000008_Node000006" class="edge">
<title>Node8&#45;&gt;Node6</title>
<g id="a_edge9_Node000008_Node000006"><a xlink:title=" ">
<path fill="none" stroke="#63b8ff" d="M192.73,-54.98C208.68,-46.61 233.28,-33.7 251.88,-23.95"/>
<polygon fill="#63b8ff" stroke="#63b8ff" points="253.75,-26.92 260.98,-19.17 250.5,-20.72 253.75,-26.92"/>
</a>
</g>
</g>
<!-- Node9&#45;&gt;Node6 -->
<g id="edge11_Node000009_Node000006" class="edge">
<title>Node9&#45;&gt;Node6</title>
<g id="a_edge11_Node000009_Node000006"><a xlink:title=" ">
<path fill="none" stroke="#63b8ff" d="M472.23,-54.98C428.71,-45.04 357.2,-28.71 314.01,-18.84"/>
<polygon fill="#63b8ff" stroke="#63b8ff" points="314.72,-15.41 304.2,-16.6 313.17,-22.24 314.72,-15.41"/>
</a>
</g>
</g>
<!-- Node9&#45;&gt;Node7 -->
<g id="edge12_Node000009_Node000007" class="edge">
<title>Node9&#45;&gt;Node7</title>
<g id="a_edge12_Node000009_Node000007"><a xlink:title=" ">
<path fill="none" stroke="#63b8ff" d="M509.5,-54.75C509.5,-47.8 509.5,-37.85 509.5,-29.13"/>
<polygon fill="#63b8ff" stroke="#63b8ff" points="513,-29.09 509.5,-19.09 506,-29.09 513,-29.09"/>
</a>
</g>
</g>
<!-- Node10&#45;&gt;Node6 -->
<g id="edge14_Node000010_Node000006" class="edge">
<title>Node10&#45;&gt;Node6</title>
<g id="a_edge14_Node000010_Node000006"><a xlink:title=" ">
<path fill="none" stroke="#63b8ff" d="M345.54,-109.77C354.9,-97.03 369.09,-72.91 358.5,-55 348.73,-38.49 330.43,-27.7 313.69,-20.88"/>
<polygon fill="#63b8ff" stroke="#63b8ff" points="314.68,-17.52 304.08,-17.31 312.24,-24.08 314.68,-17.52"/>
</a>
</g>
</g>
<!-- Node10&#45;&gt;Node7 -->
<g id="edge16_Node000010_Node000007" class="edge">
<title>Node10&#45;&gt;Node7</title>
<g id="a_edge16_Node000010_Node000007"><a xlink:title=" ">
<path fill="none" stroke="#63b8ff" d="M351.27,-109.92C369.72,-97.57 404.98,-74.15 435.5,-55 452.27,-44.47 471.43,-32.97 486.05,-24.29"/>
<polygon fill="#63b8ff" stroke="#63b8ff" points="488.11,-27.14 494.94,-19.04 484.55,-21.11 488.11,-27.14"/>
</a>
</g>
</g>
<!-- Node10&#45;&gt;Node8 -->
<g id="edge18_Node000010_Node000008" class="edge">
<title>Node10&#45;&gt;Node8</title>
<g id="a_edge18_Node000010_Node000008"><a xlink:title=" ">
<path fill="none" stroke="#63b8ff" d="M312.47,-109.98C285.39,-101.13 242.79,-87.19 212.49,-77.28"/>
<polygon fill="#63b8ff" stroke="#63b8ff" points="213.32,-73.87 202.73,-74.08 211.15,-80.52 213.32,-73.87"/>
</a>
</g>
</g>
<!-- Node10&#45;&gt;Node9 -->
<g id="edge17_Node000010_Node000009" class="edge">
<title>Node10&#45;&gt;Node9</title>
<g id="a_edge17_Node000010_Node000009"><a xlink:title=" ">
<path fill="none" stroke="#63b8ff" d="M365.97,-109.98C394.68,-101.09 439.92,-87.07 471.92,-77.15"/>
<polygon fill="#63b8ff" stroke="#63b8ff" points="473.3,-80.39 481.81,-74.08 471.22,-73.7 473.3,-80.39"/>
</a>
</g>
</g>
<!-- Node11 -->
<g id="Node000011" class="node">
<title>Node11</title>
<g id="a_Node000011"><a xlink:title=" ">
<polygon fill="#e0e0e0" stroke="#999999" points="349.5,-74 273.5,-74 273.5,-55 349.5,-55 349.5,-74"/>
<text text-anchor="middle" x="311.5" y="-62" font-family="Helvetica,sans-Serif" font-size="10.00">RingBuffer.h</text>
</a>
</g>
</g>
<!-- Node10&#45;&gt;Node11 -->
<g id="edge15_Node000010_Node000011" class="edge">
<title>Node10&#45;&gt;Node11</title>
<g id="a_edge15_Node000010_Node000011"><a xlink:title=" ">
<path fill="none" stroke="#63b8ff" d="M334.04,-109.75C330.38,-102.57 325.09,-92.18 320.55,-83.27"/>
<polygon fill="#63b8ff" stroke="#63b8ff" points="323.53,-81.41 315.88,-74.09 317.3,-84.59 323.53,-81.41"/>
</a>
</g>
</g>
</g>
</svg>
