<?xml version="1.0" encoding="UTF-8" standalone="no"?>
<!DOCTYPE svg PUBLIC "-//W3C//DTD SVG 1.1//EN"
 "http://www.w3.org/Graphics/SVG/1.1/DTD/svg11.dtd">
<!-- Generated by graphviz version 2.43.0 (0)
 -->
<!-- Title: src/max30001g.h Pages: 1 -->
<!--zoomable 196 -->
<svg id="main" version="1.1" xmlns="http://www.w3.org/2000/svg" xmlns:xlink="http://www.w3.org/1999/xlink" xml:space="preserve" onload="init(evt)">
<style type="text/css"><![CDATA[
.edge:hover path { stroke: red; }
.edge:hover polygon { stroke: red; fill: red; }
]]></style>
<script type="text/javascript"><![CDATA[
var edges = document.getElementsByTagName('g');
if (edges && edges.length) {
  for (var i=0;i<edges.length;i++) {
    if (edges[i].id.substr(0,4)=='edge') {
      edges[i].setAttribute('class','edge');
    }
  }
}
]]></script>
        <defs>
                <circle id="rim" cx="0" cy="0" r="7"/>
                <circle id="rim2" cx="0" cy="0" r="3.5"/>
                <g id="zoomPlus">
                        <use xlink:href="#rim" fill="#404040">
                                <set attributeName="fill" to="#808080" begin="zoomplus.mouseover" end="zoomplus.mouseout"/>
                        </use>
                        <path d="M-4,0h8M0,-4v8" fill="none" stroke="white" stroke-width="1.5" pointer-events="none"/>
                </g>
                <g id="zoomMin">
                        <use xlink:href="#rim" fill="#404040">
                                <set attributeName="fill" to="#808080" begin="zoomminus.mouseover" end="zoomminus.mouseout"/>
                        </use>
                        <path d="M-4,0h8" fill="none" stroke="white" stroke-width="1.5" pointer-events="none"/>
                </g>
                <g id="dirArrow">
                        <path fill="none" stroke="white" stroke-width="1.5" d="M0,-3.0v7 M-2.5,-0.5L0,-3.0L2.5,-0.5"/>
                </g>
               <g id="resetDef">
                       <use xlink:href="#rim2" fill="#404040">
                               <set attributeName="fill" to="#808080" begin="reset.mouseover" end="reset.mouseout"/>
                       </use>
               </g>
        </defs>

<script type="text/javascript">
var viewWidth = 565;
var viewHeight = 196;
var sectionId = 'dynsection-0';
</script>
<script xlink:href="svgpan.js"/>
<svg id="graph" class="graph">
<g id="viewport">
<title>src/max30001g.h</title>
<polygon fill="white" stroke="transparent" points="-4,4 -4,-192 560.91,-192 560.91,4 -4,4"/>
<!-- Node1 -->
<g id="node1" class="node">
<title>Node1</title>
<g id="a_node1"><a xlink:title=" ">
<polygon fill="#bfbfbf" stroke="black" points="295.41,-168.5 295.41,-187.5 387.41,-187.5 387.41,-168.5 295.41,-168.5"/>
<text text-anchor="middle" x="341.41" y="-175.5" font-family="Helvetica,sans-Serif" font-size="10.00">src/max30001g.h</text>
</a>
</g>
</g>
<!-- Node2 -->
<g id="node2" class="node">
<title>Node2</title>
<g id="a_node2"><a xlink:title=" ">
<polygon fill="white" stroke="#bfbfbf" points="142.91,-0.5 142.91,-19.5 191.91,-19.5 191.91,-0.5 142.91,-0.5"/>
<text text-anchor="middle" x="167.41" y="-7.5" font-family="Helvetica,sans-Serif" font-size="10.00">stdint.h</text>
</a>
</g>
</g>
<!-- Node1&#45;&gt;Node2 -->
<g id="edge1" class="edge">
<title>Node1&#45;&gt;Node2</title>
<path fill="none" stroke="midnightblue" d="M295.32,-170.19C211.52,-156.73 39.76,-123.83 6.41,-76 -25.99,-29.54 75.9,-16.27 132.4,-12.49"/>
<polygon fill="midnightblue" stroke="midnightblue" points="132.94,-15.96 142.72,-11.87 132.53,-8.98 132.94,-15.96"/>
</g>
<!-- Node3 -->
<g id="node3" class="node">
<title>Node3</title>
<g id="a_node3"><a xlink:title=" ">
<polygon fill="white" stroke="#bfbfbf" points="515.91,-112.5 515.91,-131.5 556.91,-131.5 556.91,-112.5 515.91,-112.5"/>
<text text-anchor="middle" x="536.41" y="-119.5" font-family="Helvetica,sans-Serif" font-size="10.00">SPI.h</text>
</a>
</g>
</g>
<!-- Node1&#45;&gt;Node3 -->
<g id="edge2" class="edge">
<title>Node1&#45;&gt;Node3</title>
<path fill="none" stroke="midnightblue" d="M372.31,-168.44C408.86,-158.32 469.35,-141.57 505.78,-131.48"/>
<polygon fill="midnightblue" stroke="midnightblue" points="507.12,-134.74 515.82,-128.7 505.25,-128 507.12,-134.74"/>
</g>
<!-- Node4 -->
<g id="node4" class="node">
<title>Node4</title>
<g id="a_node4"><a xlink:href="max30001g__defs_8h.html" target="_top" xlink:title=" ">
<polygon fill="white" stroke="black" points="357.91,-0.5 357.91,-19.5 456.91,-19.5 456.91,-0.5 357.91,-0.5"/>
<text text-anchor="middle" x="407.41" y="-7.5" font-family="Helvetica,sans-Serif" font-size="10.00">max30001g_defs.h</text>
</a>
</g>
</g>
<!-- Node1&#45;&gt;Node4 -->
<g id="edge3" class="edge">
<title>Node1&#45;&gt;Node4</title>
<path fill="none" stroke="midnightblue" d="M361.04,-168.37C390.74,-154.09 446.01,-122.43 468.41,-76 478.48,-55.12 455.87,-36.41 435.38,-24.49"/>
<polygon fill="midnightblue" stroke="midnightblue" points="436.99,-21.38 426.54,-19.66 433.63,-27.52 436.99,-21.38"/>
</g>
<!-- Node5 -->
<g id="node5" class="node">
<title>Node5</title>
<g id="a_node5"><a xlink:href="max30001g__regs__typedefs_8h.html" target="_top" xlink:title=" ">
<polygon fill="white" stroke="black" points="15.41,-56.5 15.41,-75.5 157.41,-75.5 157.41,-56.5 15.41,-56.5"/>
<text text-anchor="middle" x="86.41" y="-63.5" font-family="Helvetica,sans-Serif" font-size="10.00">max30001g_regs_typedefs.h</text>
</a>
</g>
</g>
<!-- Node1&#45;&gt;Node5 -->
<g id="edge4" class="edge">
<title>Node1&#45;&gt;Node5</title>
<path fill="none" stroke="midnightblue" d="M308.47,-168.46C279.65,-160.51 236.96,-147.57 201.41,-132 167.43,-117.12 130.49,-95.1 107.89,-80.9"/>
<polygon fill="midnightblue" stroke="midnightblue" points="109.73,-77.92 99.41,-75.52 105.97,-83.83 109.73,-77.92"/>
</g>
<!-- Node6 -->
<g id="node6" class="node">
<title>Node6</title>
<g id="a_node6"><a xlink:href="max30001g__typedefs_8h.html" target="_top" xlink:title=" ">
<polygon fill="white" stroke="black" points="341.41,-56.5 341.41,-75.5 459.41,-75.5 459.41,-56.5 341.41,-56.5"/>
<text text-anchor="middle" x="400.41" y="-63.5" font-family="Helvetica,sans-Serif" font-size="10.00">max30001g_typedefs.h</text>
</a>
</g>
</g>
<!-- Node1&#45;&gt;Node6 -->
<g id="edge6" class="edge">
<title>Node1&#45;&gt;Node6</title>
<path fill="none" stroke="midnightblue" d="M346.04,-168.37C355.69,-150.38 378.12,-108.55 390.95,-84.63"/>
<polygon fill="midnightblue" stroke="midnightblue" points="394.16,-86.06 395.8,-75.59 387.99,-82.75 394.16,-86.06"/>
</g>
<!-- Node7 -->
<g id="node7" class="node">
<title>Node7</title>
<g id="a_node7"><a xlink:href="max30001g__globals_8h.html" target="_top" xlink:title=" ">
<polygon fill="white" stroke="black" points="210.91,-112.5 210.91,-131.5 321.91,-131.5 321.91,-112.5 210.91,-112.5"/>
<text text-anchor="middle" x="266.41" y="-119.5" font-family="Helvetica,sans-Serif" font-size="10.00">max30001g_globals.h</text>
</a>
</g>
</g>
<!-- Node1&#45;&gt;Node7 -->
<g id="edge9" class="edge">
<title>Node1&#45;&gt;Node7</title>
<path fill="none" stroke="midnightblue" d="M329.36,-168.32C317.95,-160.11 300.58,-147.6 286.97,-137.81"/>
<polygon fill="midnightblue" stroke="midnightblue" points="288.84,-134.84 278.68,-131.83 284.75,-140.52 288.84,-134.84"/>
</g>
<!-- Node5&#45;&gt;Node2 -->
<g id="edge5" class="edge">
<title>Node5&#45;&gt;Node2</title>
<path fill="none" stroke="midnightblue" d="M99.42,-56.32C111.94,-47.98 131.09,-35.21 145.88,-25.35"/>
<polygon fill="midnightblue" stroke="midnightblue" points="148.05,-28.11 154.43,-19.65 144.16,-22.29 148.05,-28.11"/>
</g>
<!-- Node6&#45;&gt;Node2 -->
<g id="edge7" class="edge">
<title>Node6&#45;&gt;Node2</title>
<path fill="none" stroke="midnightblue" d="M360.66,-56.46C322.47,-48.15 262.89,-34.93 202.04,-20.09"/>
<polygon fill="midnightblue" stroke="midnightblue" points="202.81,-16.67 192.26,-17.69 201.14,-23.47 202.81,-16.67"/>
</g>
<!-- Node6&#45;&gt;Node4 -->
<g id="edge8" class="edge">
<title>Node6&#45;&gt;Node4</title>
<path fill="none" stroke="midnightblue" d="M401.56,-56.08C402.49,-48.93 403.83,-38.64 404.99,-29.69"/>
<polygon fill="midnightblue" stroke="midnightblue" points="408.46,-30.12 406.27,-19.75 401.52,-29.22 408.46,-30.12"/>
</g>
<!-- Node7&#45;&gt;Node2 -->
<g id="edge10" class="edge">
<title>Node7&#45;&gt;Node2</title>
<path fill="none" stroke="midnightblue" d="M250.97,-112.37C237.48,-104.27 217.98,-91.16 204.41,-76 191.85,-61.97 181.64,-42.97 175.16,-29.14"/>
<polygon fill="midnightblue" stroke="midnightblue" points="178.23,-27.44 170.94,-19.74 171.84,-30.3 178.23,-27.44"/>
</g>
<!-- Node7&#45;&gt;Node4 -->
<g id="edge15" class="edge">
<title>Node7&#45;&gt;Node4</title>
<path fill="none" stroke="midnightblue" d="M273.96,-112.34C285.67,-99.22 309.27,-73.92 332.41,-56 347.77,-44.1 366.51,-32.85 381.42,-24.58"/>
<polygon fill="midnightblue" stroke="midnightblue" points="383.48,-27.45 390.59,-19.59 380.13,-21.3 383.48,-27.45"/>
</g>
<!-- Node7&#45;&gt;Node5 -->
<g id="edge17" class="edge">
<title>Node7&#45;&gt;Node5</title>
<path fill="none" stroke="midnightblue" d="M237.89,-112.44C207.34,-103.28 158.7,-88.69 124.81,-78.52"/>
<polygon fill="midnightblue" stroke="midnightblue" points="125.38,-75.04 114.8,-75.52 123.37,-81.74 125.38,-75.04"/>
</g>
<!-- Node7&#45;&gt;Node6 -->
<g id="edge16" class="edge">
<title>Node7&#45;&gt;Node6</title>
<path fill="none" stroke="midnightblue" d="M287.64,-112.44C309.79,-103.52 344.73,-89.44 369.84,-79.32"/>
<polygon fill="midnightblue" stroke="midnightblue" points="371.31,-82.5 379.28,-75.52 368.69,-76.01 371.31,-82.5"/>
</g>
<!-- Node8 -->
<g id="node8" class="node">
<title>Node8</title>
<g id="a_node8"><a xlink:href="RingBuffer_8h.html" target="_top" xlink:title=" ">
<polygon fill="white" stroke="black" points="213.91,-56.5 213.91,-75.5 284.91,-75.5 284.91,-56.5 213.91,-56.5"/>
<text text-anchor="middle" x="249.41" y="-63.5" font-family="Helvetica,sans-Serif" font-size="10.00">RingBuffer.h</text>
</a>
</g>
</g>
<!-- Node7&#45;&gt;Node8 -->
<g id="edge11" class="edge">
<title>Node7&#45;&gt;Node8</title>
<path fill="none" stroke="midnightblue" d="M263.6,-112.08C261.32,-104.85 258.04,-94.41 255.2,-85.4"/>
<polygon fill="midnightblue" stroke="midnightblue" points="258.5,-84.24 252.16,-75.75 251.83,-86.34 258.5,-84.24"/>
</g>
<!-- Node8&#45;&gt;Node2 -->
<g id="edge13" class="edge">
<title>Node8&#45;&gt;Node2</title>
<path fill="none" stroke="midnightblue" d="M236.23,-56.32C223.56,-47.98 204.18,-35.21 189.2,-25.35"/>
<polygon fill="midnightblue" stroke="midnightblue" points="190.83,-22.23 180.55,-19.65 186.98,-28.08 190.83,-22.23"/>
</g>
<!-- Node9 -->
<g id="node9" class="node">
<title>Node9</title>
<g id="a_node9"><a xlink:title=" ">
<polygon fill="white" stroke="#bfbfbf" points="290.91,-0.5 290.91,-19.5 339.91,-19.5 339.91,-0.5 290.91,-0.5"/>
<text text-anchor="middle" x="315.41" y="-7.5" font-family="Helvetica,sans-Serif" font-size="10.00">string.h</text>
</a>
</g>
</g>
<!-- Node8&#45;&gt;Node9 -->
<g id="edge12" class="edge">
<title>Node8&#45;&gt;Node9</title>
<path fill="none" stroke="midnightblue" d="M260.01,-56.32C269.86,-48.26 284.76,-36.08 296.62,-26.37"/>
<polygon fill="midnightblue" stroke="midnightblue" points="299.09,-28.88 304.61,-19.83 294.66,-23.46 299.09,-28.88"/>
</g>
<!-- Node10 -->
<g id="node10" class="node">
<title>Node10</title>
<g id="a_node10"><a xlink:title=" ">
<polygon fill="white" stroke="#bfbfbf" points="210.41,-0.5 210.41,-19.5 272.41,-19.5 272.41,-0.5 210.41,-0.5"/>
<text text-anchor="middle" x="241.41" y="-7.5" font-family="Helvetica,sans-Serif" font-size="10.00">type_traits</text>
</a>
</g>
</g>
<!-- Node8&#45;&gt;Node10 -->
<g id="edge14" class="edge">
<title>Node8&#45;&gt;Node10</title>
<path fill="none" stroke="midnightblue" d="M248.09,-56.08C247.03,-48.93 245.5,-38.64 244.18,-29.69"/>
<polygon fill="midnightblue" stroke="midnightblue" points="247.63,-29.13 242.7,-19.75 240.71,-30.16 247.63,-29.13"/>
</g>
</g>
</svg>
        <g id="navigator" transform="translate(0 0)" fill="#404254">
                <rect fill="#f2f5e9" fill-opacity="0.5" stroke="#606060" stroke-width=".5" x="0" y="0" width="60" height="60"/>
                <use id="zoomplus" xlink:href="#zoomPlus" x="17" y="9" onmousedown="handleZoom(evt,'in')"/>
                <use id="zoomminus" xlink:href="#zoomMin" x="42" y="9" onmousedown="handleZoom(evt,'out')"/>
                <use id="reset" xlink:href="#resetDef" x="30" y="36" onmousedown="handleReset()"/>
                <g id="arrowUp" xlink:href="#dirArrow" transform="translate(30 24)" onmousedown="handlePan(0,-1)">
                  <use xlink:href="#rim" fill="#404040">
                        <set attributeName="fill" to="#808080" begin="arrowUp.mouseover" end="arrowUp.mouseout"/>
                  </use>
                  <path fill="none" stroke="white" stroke-width="1.5" d="M0,-3.0v7 M-2.5,-0.5L0,-3.0L2.5,-0.5"/>
                </g>
                <g id="arrowRight" xlink:href="#dirArrow" transform="rotate(90) translate(36 -43)" onmousedown="handlePan(1,0)">
                  <use xlink:href="#rim" fill="#404040">
                        <set attributeName="fill" to="#808080" begin="arrowRight.mouseover" end="arrowRight.mouseout"/>
                  </use>
                  <path fill="none" stroke="white" stroke-width="1.5" d="M0,-3.0v7 M-2.5,-0.5L0,-3.0L2.5,-0.5"/>
                </g>
                <g id="arrowDown" xlink:href="#dirArrow" transform="rotate(180) translate(-30 -48)" onmousedown="handlePan(0,1)">
                  <use xlink:href="#rim" fill="#404040">
                        <set attributeName="fill" to="#808080" begin="arrowDown.mouseover" end="arrowDown.mouseout"/>
                  </use>
                  <path fill="none" stroke="white" stroke-width="1.5" d="M0,-3.0v7 M-2.5,-0.5L0,-3.0L2.5,-0.5"/>
                </g>
                <g id="arrowLeft" xlink:href="#dirArrow" transform="rotate(270) translate(-36 17)" onmousedown="handlePan(-1,0)">
                  <use xlink:href="#rim" fill="#404040">
                        <set attributeName="fill" to="#808080" begin="arrowLeft.mouseover" end="arrowLeft.mouseout"/>
                  </use>
                  <path fill="none" stroke="white" stroke-width="1.5" d="M0,-3.0v7 M-2.5,-0.5L0,-3.0L2.5,-0.5"/>
                </g>
        </g>
        <svg viewBox="0 0 15 15" width="100%" height="30px" preserveAspectRatio="xMaxYMin meet">
         <g id="arrow_out" transform="scale(0.3 0.3)">
          <a xlink:href="max30001g_8h__incl_org.svg" target="_base">
           <rect id="button" ry="5" rx="5" y="6" x="6" height="38" width="38"
                fill="#f2f5e9" fill-opacity="0.5" stroke="#606060" stroke-width="1.0"/>
           <path id="arrow"
             d="M 11.500037,31.436501 C 11.940474,20.09759 22.043105,11.32322 32.158766,21.979434 L 37.068811,17.246167 C 37.068811,17.246167 37.088388,32 37.088388,32 L 22.160133,31.978069 C 22.160133,31.978069 26.997745,27.140456 26.997745,27.140456 C 18.528582,18.264221 13.291696,25.230495 11.500037,31.436501 z"
             style="fill:#404040;"/>
          </a>
         </g>
        </svg>
</svg>
