<?xml version="1.0" encoding="UTF-8" standalone="no"?>
<!DOCTYPE svg PUBLIC "-//W3C//DTD SVG 1.1//EN"
 "http://www.w3.org/Graphics/SVG/1.1/DTD/svg11.dtd">
<!-- Generated by graphviz version 2.43.0 (0)
 -->
<!-- Title: src/max30001g_globals.cpp Pages: 1 -->
<svg width="463pt" height="192pt"
 viewBox="0.00 0.00 463.25 192.00" xmlns="http://www.w3.org/2000/svg" xmlns:xlink="http://www.w3.org/1999/xlink">
<g id="graph0" class="graph" transform="scale(1 1) rotate(0) translate(4 188)">
<title>src/max30001g_globals.cpp</title>
<!-- Node1 -->
<g id="Node000001" class="node">
<title>Node1</title>
<g id="a_Node000001"><a xlink:title=" ">
<polygon fill="#999999" stroke="#666666" points="266.25,-184 114.25,-184 114.25,-165 266.25,-165 266.25,-184"/>
<text text-anchor="middle" x="190.25" y="-172" font-family="Helvetica,sans-Serif" font-size="10.00">src/max30001g_globals.cpp</text>
</a>
</g>
</g>
<!-- Node2 -->
<g id="Node000002" class="node">
<title>Node2</title>
<g id="a_Node000002"><a xlink:href="max30001g__globals_8h.html" target="_top" xlink:title=" ">
<polygon fill="white" stroke="#666666" points="252.25,-129 128.25,-129 128.25,-110 252.25,-110 252.25,-129"/>
<text text-anchor="middle" x="190.25" y="-117" font-family="Helvetica,sans-Serif" font-size="10.00">max30001g_globals.h</text>
</a>
</g>
</g>
<!-- Node1&#45;&gt;Node2 -->
<g id="edge1_Node000001_Node000002" class="edge">
<title>Node1&#45;&gt;Node2</title>
<g id="a_edge1_Node000001_Node000002"><a xlink:title=" ">
<path fill="none" stroke="#63b8ff" d="M190.25,-164.75C190.25,-157.8 190.25,-147.85 190.25,-139.13"/>
<polygon fill="#63b8ff" stroke="#63b8ff" points="193.75,-139.09 190.25,-129.09 186.75,-139.09 193.75,-139.09"/>
</a>
</g>
</g>
<!-- Node3 -->
<g id="Node000003" class="node">
<title>Node3</title>
<g id="a_Node000003"><a xlink:title=" ">
<polygon fill="#e0e0e0" stroke="#999999" points="216.75,-19 163.75,-19 163.75,0 216.75,0 216.75,-19"/>
<text text-anchor="middle" x="190.25" y="-7" font-family="Helvetica,sans-Serif" font-size="10.00">stdint.h</text>
</a>
</g>
</g>
<!-- Node2&#45;&gt;Node3 -->
<g id="edge2_Node000002_Node000003" class="edge">
<title>Node2&#45;&gt;Node3</title>
<g id="a_edge2_Node000002_Node000003"><a xlink:title=" ">
<path fill="none" stroke="#63b8ff" d="M128.21,-116.83C62.77,-112.75 -26.46,-99.22 8.25,-55 25.98,-32.41 105.81,-19.82 153.66,-14.17"/>
<polygon fill="#63b8ff" stroke="#63b8ff" points="154.1,-17.64 163.64,-13.04 153.31,-10.69 154.1,-17.64"/>
</a>
</g>
</g>
<!-- Node4 -->
<g id="Node000004" class="node">
<title>Node4</title>
<g id="a_Node000004"><a xlink:title=" ">
<polygon fill="#e0e0e0" stroke="#999999" points="93.25,-74 17.25,-74 17.25,-55 93.25,-55 93.25,-74"/>
<text text-anchor="middle" x="55.25" y="-62" font-family="Helvetica,sans-Serif" font-size="10.00">RingBuffer.h</text>
</a>
</g>
</g>
<!-- Node2&#45;&gt;Node4 -->
<g id="edge3_Node000002_Node000004" class="edge">
<title>Node2&#45;&gt;Node4</title>
<g id="a_edge3_Node000002_Node000004"><a xlink:title=" ">
<path fill="none" stroke="#63b8ff" d="M168.56,-109.98C146.45,-101.3 111.93,-87.75 86.8,-77.88"/>
<polygon fill="#63b8ff" stroke="#63b8ff" points="87.92,-74.57 77.34,-74.17 85.37,-81.08 87.92,-74.57"/>
</a>
</g>
</g>
<!-- Node5 -->
<g id="Node000005" class="node">
<title>Node5</title>
<g id="a_Node000005"><a xlink:href="max30001g__defs_8h.html" target="_top" xlink:title=" ">
<polygon fill="white" stroke="#666666" points="455.25,-19 345.25,-19 345.25,0 455.25,0 455.25,-19"/>
<text text-anchor="middle" x="400.25" y="-7" font-family="Helvetica,sans-Serif" font-size="10.00">max30001g_defs.h</text>
</a>
</g>
</g>
<!-- Node2&#45;&gt;Node5 -->
<g id="edge4_Node000002_Node000005" class="edge">
<title>Node2&#45;&gt;Node5</title>
<g id="a_edge4_Node000002_Node000005"><a xlink:title=" ">
<path fill="none" stroke="#63b8ff" d="M252.42,-115.62C315.31,-111.26 406.3,-100.44 428.25,-74 439.85,-60.03 428.09,-40.5 416.45,-26.8"/>
<polygon fill="#63b8ff" stroke="#63b8ff" points="418.76,-24.14 409.43,-19.12 413.59,-28.86 418.76,-24.14"/>
</a>
</g>
</g>
<!-- Node6 -->
<g id="Node000006" class="node">
<title>Node6</title>
<g id="a_Node000006"><a xlink:href="max30001g__typedefs_8h.html" target="_top" xlink:title=" ">
<polygon fill="white" stroke="#666666" points="418.75,-74 287.75,-74 287.75,-55 418.75,-55 418.75,-74"/>
<text text-anchor="middle" x="353.25" y="-62" font-family="Helvetica,sans-Serif" font-size="10.00">max30001g_typedefs.h</text>
</a>
</g>
</g>
<!-- Node2&#45;&gt;Node6 -->
<g id="edge5_Node000002_Node000006" class="edge">
<title>Node2&#45;&gt;Node6</title>
<g id="a_edge5_Node000002_Node000006"><a xlink:title=" ">
<path fill="none" stroke="#63b8ff" d="M216.44,-109.98C243.69,-101.13 286.55,-87.19 317.03,-77.28"/>
<polygon fill="#63b8ff" stroke="#63b8ff" points="318.43,-80.5 326.86,-74.08 316.26,-73.85 318.43,-80.5"/>
</a>
</g>
</g>
<!-- Node7 -->
<g id="Node000007" class="node">
<title>Node7</title>
<g id="a_Node000007"><a xlink:href="max30001g__regs__typedefs_8h.html" target="_top" xlink:title=" ">
<polygon fill="white" stroke="#666666" points="269.25,-74 111.25,-74 111.25,-55 269.25,-55 269.25,-74"/>
<text text-anchor="middle" x="190.25" y="-62" font-family="Helvetica,sans-Serif" font-size="10.00">max30001g_regs_typedefs.h</text>
</a>
</g>
</g>
<!-- Node2&#45;&gt;Node7 -->
<g id="edge8_Node000002_Node000007" class="edge">
<title>Node2&#45;&gt;Node7</title>
<g id="a_edge8_Node000002_Node000007"><a xlink:title=" ">
<path fill="none" stroke="#63b8ff" d="M190.25,-109.75C190.25,-102.8 190.25,-92.85 190.25,-84.13"/>
<polygon fill="#63b8ff" stroke="#63b8ff" points="193.75,-84.09 190.25,-74.09 186.75,-84.09 193.75,-84.09"/>
</a>
</g>
</g>
<!-- Node6&#45;&gt;Node3 -->
<g id="edge6_Node000006_Node000003" class="edge">
<title>Node6&#45;&gt;Node3</title>
<g id="a_edge6_Node000006_Node000003"><a xlink:title=" ">
<path fill="none" stroke="#63b8ff" d="M327.06,-54.98C299.81,-46.13 256.95,-32.19 226.47,-22.28"/>
<polygon fill="#63b8ff" stroke="#63b8ff" points="227.24,-18.85 216.65,-19.08 225.07,-25.5 227.24,-18.85"/>
</a>
</g>
</g>
<!-- Node6&#45;&gt;Node5 -->
<g id="edge7_Node000006_Node000005" class="edge">
<title>Node6&#45;&gt;Node5</title>
<g id="a_edge7_Node000006_Node000005"><a xlink:title=" ">
<path fill="none" stroke="#63b8ff" d="M361.01,-54.75C367.72,-47.18 377.59,-36.05 385.76,-26.84"/>
<polygon fill="#63b8ff" stroke="#63b8ff" points="388.62,-28.89 392.63,-19.09 383.38,-24.25 388.62,-28.89"/>
</a>
</g>
</g>
<!-- Node7&#45;&gt;Node3 -->
<g id="edge9_Node000007_Node000003" class="edge">
<title>Node7&#45;&gt;Node3</title>
<g id="a_edge9_Node000007_Node000003"><a xlink:title=" ">
<path fill="none" stroke="#63b8ff" d="M190.25,-54.75C190.25,-47.8 190.25,-37.85 190.25,-29.13"/>
<polygon fill="#63b8ff" stroke="#63b8ff" points="193.75,-29.09 190.25,-19.09 186.75,-29.09 193.75,-29.09"/>
</a>
</g>
</g>
</g>
</svg>
