<?xml version="1.0" encoding="UTF-8" standalone="no"?>
<!DOCTYPE svg PUBLIC "-//W3C//DTD SVG 1.1//EN"
 "http://www.w3.org/Graphics/SVG/1.1/DTD/svg11.dtd">
<!-- Generated by graphviz version 2.43.0 (0)
 -->
<!-- Title: src/max30001g_configure_bioz.cpp Pages: 1 -->
<svg width="600pt" height="258pt"
 viewBox="0.00 0.00 600.14 258.00" xmlns="http://www.w3.org/2000/svg" xmlns:xlink="http://www.w3.org/1999/xlink">
<g id="graph0" class="graph" transform="scale(1 1) rotate(0) translate(4 254)">
<title>src/max30001g_configure_bioz.cpp</title>
<!-- Node1 -->
<g id="Node000001" class="node">
<title>Node1</title>
<g id="a_Node000001"><a xlink:title=" ">
<polygon fill="#999999" stroke="#666666" points="344.64,-250 202.64,-250 202.64,-220 344.64,-220 344.64,-250"/>
<text text-anchor="start" x="210.64" y="-238" font-family="Helvetica,sans-Serif" font-size="10.00">src/max30001g_configure</text>
<text text-anchor="middle" x="273.64" y="-227" font-family="Helvetica,sans-Serif" font-size="10.00">_bioz.cpp</text>
</a>
</g>
</g>
<!-- Node2 -->
<g id="Node000002" class="node">
<title>Node2</title>
<g id="a_Node000002"><a xlink:title=" ">
<polygon fill="#e0e0e0" stroke="#999999" points="227.14,-184 176.14,-184 176.14,-165 227.14,-165 227.14,-184"/>
<text text-anchor="middle" x="201.64" y="-172" font-family="Helvetica,sans-Serif" font-size="10.00">math.h</text>
</a>
</g>
</g>
<!-- Node1&#45;&gt;Node2 -->
<g id="edge1_Node000001_Node000002" class="edge">
<title>Node1&#45;&gt;Node2</title>
<g id="a_edge1_Node000001_Node000002"><a xlink:title=" ">
<path fill="none" stroke="#63b8ff" d="M256.21,-219.84C245.33,-211 231.34,-199.63 220.25,-190.62"/>
<polygon fill="#63b8ff" stroke="#63b8ff" points="222.4,-187.86 212.43,-184.27 217.98,-193.29 222.4,-187.86"/>
</a>
</g>
</g>
<!-- Node3 -->
<g id="Node000003" class="node">
<title>Node3</title>
<g id="a_Node000003"><a xlink:title=" ">
<polygon fill="#e0e0e0" stroke="#999999" points="301.64,-184 245.64,-184 245.64,-165 301.64,-165 301.64,-184"/>
<text text-anchor="middle" x="273.64" y="-172" font-family="Helvetica,sans-Serif" font-size="10.00">logger.h</text>
</a>
</g>
</g>
<!-- Node1&#45;&gt;Node3 -->
<g id="edge2_Node000001_Node000003" class="edge">
<title>Node1&#45;&gt;Node3</title>
<g id="a_edge2_Node000001_Node000003"><a xlink:title=" ">
<path fill="none" stroke="#63b8ff" d="M273.64,-219.84C273.64,-212.21 273.64,-202.7 273.64,-194.45"/>
<polygon fill="#63b8ff" stroke="#63b8ff" points="277.14,-194.27 273.64,-184.27 270.14,-194.27 277.14,-194.27"/>
</a>
</g>
</g>
<!-- Node4 -->
<g id="Node000004" class="node">
<title>Node4</title>
<g id="a_Node000004"><a xlink:href="max30001g_8h.html" target="_top" xlink:title=" ">
<polygon fill="white" stroke="#666666" points="403.14,-184 320.14,-184 320.14,-165 403.14,-165 403.14,-184"/>
<text text-anchor="middle" x="361.64" y="-172" font-family="Helvetica,sans-Serif" font-size="10.00">max30001g.h</text>
</a>
</g>
</g>
<!-- Node1&#45;&gt;Node4 -->
<g id="edge3_Node000001_Node000004" class="edge">
<title>Node1&#45;&gt;Node4</title>
<g id="a_edge3_Node000001_Node000004"><a xlink:title=" ">
<path fill="none" stroke="#63b8ff" d="M294.94,-219.84C308.71,-210.68 326.56,-198.82 340.33,-189.66"/>
<polygon fill="#63b8ff" stroke="#63b8ff" points="342.32,-192.55 348.71,-184.09 338.44,-186.72 342.32,-192.55"/>
</a>
</g>
</g>
<!-- Node5 -->
<g id="Node000005" class="node">
<title>Node5</title>
<g id="a_Node000005"><a xlink:title=" ">
<polygon fill="#e0e0e0" stroke="#999999" points="223.14,-19 170.14,-19 170.14,0 223.14,0 223.14,-19"/>
<text text-anchor="middle" x="196.64" y="-7" font-family="Helvetica,sans-Serif" font-size="10.00">stdint.h</text>
</a>
</g>
</g>
<!-- Node4&#45;&gt;Node5 -->
<g id="edge4_Node000004_Node000005" class="edge">
<title>Node4&#45;&gt;Node5</title>
<g id="a_edge4_Node000004_Node000005"><a xlink:title=" ">
<path fill="none" stroke="#63b8ff" d="M320.96,-164.98C232.03,-145.94 26.67,-99.63 7.64,-74 -31.94,-20.69 93.91,-11.62 159.5,-10.42"/>
<polygon fill="#63b8ff" stroke="#63b8ff" points="159.9,-13.92 169.85,-10.29 159.81,-6.92 159.9,-13.92"/>
</a>
</g>
</g>
<!-- Node6 -->
<g id="Node000006" class="node">
<title>Node6</title>
<g id="a_Node000006"><a xlink:title=" ">
<polygon fill="#e0e0e0" stroke="#999999" points="592.14,-129 551.14,-129 551.14,-110 592.14,-110 592.14,-129"/>
<text text-anchor="middle" x="571.64" y="-117" font-family="Helvetica,sans-Serif" font-size="10.00">SPI.h</text>
</a>
</g>
</g>
<!-- Node4&#45;&gt;Node6 -->
<g id="edge5_Node000004_Node000006" class="edge">
<title>Node4&#45;&gt;Node6</title>
<g id="a_edge5_Node000004_Node000006"><a xlink:title=" ">
<path fill="none" stroke="#63b8ff" d="M395.38,-164.98C435.54,-154.85 502.05,-138.06 540.86,-128.27"/>
<polygon fill="#63b8ff" stroke="#63b8ff" points="542.19,-131.54 551.03,-125.7 540.48,-124.75 542.19,-131.54"/>
</a>
</g>
</g>
<!-- Node7 -->
<g id="Node000007" class="node">
<title>Node7</title>
<g id="a_Node000007"><a xlink:href="max30001g__defs_8h.html" target="_top" xlink:title=" ">
<polygon fill="white" stroke="#666666" points="483.64,-19 373.64,-19 373.64,0 483.64,0 483.64,-19"/>
<text text-anchor="middle" x="428.64" y="-7" font-family="Helvetica,sans-Serif" font-size="10.00">max30001g_defs.h</text>
</a>
</g>
</g>
<!-- Node4&#45;&gt;Node7 -->
<g id="edge6_Node000004_Node000007" class="edge">
<title>Node4&#45;&gt;Node7</title>
<g id="a_edge6_Node000004_Node000007"><a xlink:title=" ">
<path fill="none" stroke="#63b8ff" d="M385.42,-165C418.92,-151.57 478.7,-121.93 503.64,-74 515.3,-51.59 488.38,-33.86 463.6,-22.89"/>
<polygon fill="#63b8ff" stroke="#63b8ff" points="464.88,-19.63 454.3,-19.02 462.19,-26.09 464.88,-19.63"/>
</a>
</g>
</g>
<!-- Node8 -->
<g id="Node000008" class="node">
<title>Node8</title>
<g id="a_Node000008"><a xlink:href="max30001g__regs__typedefs_8h.html" target="_top" xlink:title=" ">
<polygon fill="white" stroke="#666666" points="174.64,-74 16.64,-74 16.64,-55 174.64,-55 174.64,-74"/>
<text text-anchor="middle" x="95.64" y="-62" font-family="Helvetica,sans-Serif" font-size="10.00">max30001g_regs_typedefs.h</text>
</a>
</g>
</g>
<!-- Node4&#45;&gt;Node8 -->
<g id="edge7_Node000004_Node000008" class="edge">
<title>Node4&#45;&gt;Node8</title>
<g id="a_edge7_Node000004_Node000008"><a xlink:title=" ">
<path fill="none" stroke="#63b8ff" d="M335.33,-164.95C309.67,-156.43 269.64,-142.69 235.64,-129 195.55,-112.87 150.17,-91.74 122.23,-78.39"/>
<polygon fill="#63b8ff" stroke="#63b8ff" points="123.64,-75.18 113.11,-74.01 120.61,-81.5 123.64,-75.18"/>
</a>
</g>
</g>
<!-- Node9 -->
<g id="Node000009" class="node">
<title>Node9</title>
<g id="a_Node000009"><a xlink:href="max30001g__typedefs_8h.html" target="_top" xlink:title=" ">
<polygon fill="white" stroke="#666666" points="494.14,-74 363.14,-74 363.14,-55 494.14,-55 494.14,-74"/>
<text text-anchor="middle" x="428.64" y="-62" font-family="Helvetica,sans-Serif" font-size="10.00">max30001g_typedefs.h</text>
</a>
</g>
</g>
<!-- Node4&#45;&gt;Node9 -->
<g id="edge9_Node000004_Node000009" class="edge">
<title>Node4&#45;&gt;Node9</title>
<g id="a_edge9_Node000004_Node000009"><a xlink:title=" ">
<path fill="none" stroke="#63b8ff" d="M367.12,-164.66C378.22,-146.77 403.51,-106 417.97,-82.69"/>
<polygon fill="#63b8ff" stroke="#63b8ff" points="420.97,-84.5 423.27,-74.16 415.02,-80.81 420.97,-84.5"/>
</a>
</g>
</g>
<!-- Node10 -->
<g id="Node000010" class="node">
<title>Node10</title>
<g id="a_Node000010"><a xlink:href="max30001g__globals_8h.html" target="_top" xlink:title=" ">
<polygon fill="white" stroke="#666666" points="368.64,-129 244.64,-129 244.64,-110 368.64,-110 368.64,-129"/>
<text text-anchor="middle" x="306.64" y="-117" font-family="Helvetica,sans-Serif" font-size="10.00">max30001g_globals.h</text>
</a>
</g>
</g>
<!-- Node4&#45;&gt;Node10 -->
<g id="edge12_Node000004_Node000010" class="edge">
<title>Node4&#45;&gt;Node10</title>
<g id="a_edge12_Node000004_Node000010"><a xlink:title=" ">
<path fill="none" stroke="#63b8ff" d="M352.56,-164.75C344.55,-157.03 332.68,-145.6 323.02,-136.28"/>
<polygon fill="#63b8ff" stroke="#63b8ff" points="325.18,-133.51 315.55,-129.09 320.32,-138.55 325.18,-133.51"/>
</a>
</g>
</g>
<!-- Node8&#45;&gt;Node5 -->
<g id="edge8_Node000008_Node000005" class="edge">
<title>Node8&#45;&gt;Node5</title>
<g id="a_edge8_Node000008_Node000005"><a xlink:title=" ">
<path fill="none" stroke="#63b8ff" d="M111.87,-54.98C127.82,-46.61 152.42,-33.7 171.02,-23.95"/>
<polygon fill="#63b8ff" stroke="#63b8ff" points="172.89,-26.92 180.12,-19.17 169.63,-20.72 172.89,-26.92"/>
</a>
</g>
</g>
<!-- Node9&#45;&gt;Node5 -->
<g id="edge10_Node000009_Node000005" class="edge">
<title>Node9&#45;&gt;Node5</title>
<g id="a_edge10_Node000009_Node000005"><a xlink:title=" ">
<path fill="none" stroke="#63b8ff" d="M391.36,-54.98C347.84,-45.04 276.33,-28.71 233.15,-18.84"/>
<polygon fill="#63b8ff" stroke="#63b8ff" points="233.86,-15.41 223.34,-16.6 232.3,-22.24 233.86,-15.41"/>
</a>
</g>
</g>
<!-- Node9&#45;&gt;Node7 -->
<g id="edge11_Node000009_Node000007" class="edge">
<title>Node9&#45;&gt;Node7</title>
<g id="a_edge11_Node000009_Node000007"><a xlink:title=" ">
<path fill="none" stroke="#63b8ff" d="M428.64,-54.75C428.64,-47.8 428.64,-37.85 428.64,-29.13"/>
<polygon fill="#63b8ff" stroke="#63b8ff" points="432.14,-29.09 428.64,-19.09 425.14,-29.09 432.14,-29.09"/>
</a>
</g>
</g>
<!-- Node10&#45;&gt;Node5 -->
<g id="edge13_Node000010_Node000005" class="edge">
<title>Node10&#45;&gt;Node5</title>
<g id="a_edge13_Node000010_Node000005"><a xlink:title=" ">
<path fill="none" stroke="#63b8ff" d="M304.53,-109.7C300.97,-96.44 292.65,-71.16 277.64,-55 264.71,-41.08 246.41,-30.51 230.47,-23.18"/>
<polygon fill="#63b8ff" stroke="#63b8ff" points="231.49,-19.81 220.93,-19.03 228.7,-26.23 231.49,-19.81"/>
</a>
</g>
</g>
<!-- Node10&#45;&gt;Node7 -->
<g id="edge15_Node000010_Node000007" class="edge">
<title>Node10&#45;&gt;Node7</title>
<g id="a_edge15_Node000010_Node000007"><a xlink:title=" ">
<path fill="none" stroke="#63b8ff" d="M311.66,-109.87C319.57,-96.82 335.94,-71.82 354.64,-55 368.54,-42.5 386.45,-31.62 401.17,-23.75"/>
<polygon fill="#63b8ff" stroke="#63b8ff" points="403.04,-26.72 410.31,-19.02 399.82,-20.51 403.04,-26.72"/>
</a>
</g>
</g>
<!-- Node10&#45;&gt;Node8 -->
<g id="edge17_Node000010_Node000008" class="edge">
<title>Node10&#45;&gt;Node8</title>
<g id="a_edge17_Node000010_Node000008"><a xlink:title=" ">
<path fill="none" stroke="#63b8ff" d="M272.74,-109.98C236.62,-100.91 179.31,-86.52 139.72,-76.57"/>
<polygon fill="#63b8ff" stroke="#63b8ff" points="140.36,-73.12 129.81,-74.08 138.65,-79.91 140.36,-73.12"/>
</a>
</g>
</g>
<!-- Node10&#45;&gt;Node9 -->
<g id="edge16_Node000010_Node000009" class="edge">
<title>Node10&#45;&gt;Node9</title>
<g id="a_edge16_Node000010_Node000009"><a xlink:title=" ">
<path fill="none" stroke="#63b8ff" d="M326.24,-109.98C345.95,-101.42 376.59,-88.11 399.22,-78.28"/>
<polygon fill="#63b8ff" stroke="#63b8ff" points="400.9,-81.37 408.68,-74.17 398.11,-74.94 400.9,-81.37"/>
</a>
</g>
</g>
<!-- Node11 -->
<g id="Node000011" class="node">
<title>Node11</title>
<g id="a_Node000011"><a xlink:title=" ">
<polygon fill="#e0e0e0" stroke="#999999" points="268.64,-74 192.64,-74 192.64,-55 268.64,-55 268.64,-74"/>
<text text-anchor="middle" x="230.64" y="-62" font-family="Helvetica,sans-Serif" font-size="10.00">RingBuffer.h</text>
</a>
</g>
</g>
<!-- Node10&#45;&gt;Node11 -->
<g id="edge14_Node000010_Node000011" class="edge">
<title>Node10&#45;&gt;Node11</title>
<g id="a_edge14_Node000010_Node000011"><a xlink:title=" ">
<path fill="none" stroke="#63b8ff" d="M294.43,-109.98C282.86,-101.92 265.26,-89.65 251.48,-80.03"/>
<polygon fill="#63b8ff" stroke="#63b8ff" points="253.28,-77.02 243.07,-74.17 249.27,-82.76 253.28,-77.02"/>
</a>
</g>
</g>
</g>
</svg>
