<?xml version="1.0" encoding="UTF-8" standalone="no"?>
<!DOCTYPE svg PUBLIC "-//W3C//DTD SVG 1.1//EN"
 "http://www.w3.org/Graphics/SVG/1.1/DTD/svg11.dtd">
<!-- Generated by graphviz version 2.43.0 (0)
 -->
<!-- Title: src/max30001g_defs.h Pages: 1 -->
<svg width="1799pt" height="258pt"
 viewBox="0.00 0.00 1798.50 258.00" xmlns="http://www.w3.org/2000/svg" xmlns:xlink="http://www.w3.org/1999/xlink">
<g id="graph0" class="graph" transform="scale(1 1) rotate(0) translate(4 254)">
<title>src/max30001g_defs.h</title>
<!-- Node1 -->
<g id="Node000001" class="node">
<title>Node1</title>
<g id="a_Node000001"><a xlink:title=" ">
<polygon fill="#999999" stroke="#666666" points="1021.5,-250 894.5,-250 894.5,-231 1021.5,-231 1021.5,-250"/>
<text text-anchor="middle" x="958" y="-238" font-family="Helvetica,sans-Serif" font-size="10.00">src/max30001g_defs.h</text>
</a>
</g>
</g>
<!-- Node2 -->
<g id="Node000002" class="node">
<title>Node2</title>
<g id="a_Node000002"><a xlink:href="max30001g_8h.html" target="_top" xlink:title=" ">
<polygon fill="white" stroke="#666666" points="925.5,-85 824.5,-85 824.5,-66 925.5,-66 925.5,-85"/>
<text text-anchor="middle" x="875" y="-73" font-family="Helvetica,sans-Serif" font-size="10.00">src/max30001g.h</text>
</a>
</g>
</g>
<!-- Node1&#45;&gt;Node2 -->
<g id="edge1_Node000001_Node000002" class="edge">
<title>Node1&#45;&gt;Node2</title>
<g id="a_edge1_Node000001_Node000002"><a xlink:title=" ">
<path fill="none" stroke="#63b8ff" d="M915.43,-227.05C899.91,-220.22 883.97,-209.99 875,-195 853.55,-159.17 866.12,-105.65 872.24,-85.03"/>
<polygon fill="#63b8ff" stroke="#63b8ff" points="914.4,-230.4 924.98,-230.87 917,-223.9 914.4,-230.4"/>
</a>
</g>
</g>
<!-- Node14 -->
<g id="Node000014" class="node">
<title>Node14</title>
<g id="a_Node000014"><a xlink:href="max30001g__globals_8h.html" target="_top" xlink:title=" ">
<polygon fill="white" stroke="#666666" points="1083.5,-140 942.5,-140 942.5,-121 1083.5,-121 1083.5,-140"/>
<text text-anchor="middle" x="1013" y="-128" font-family="Helvetica,sans-Serif" font-size="10.00">src/max30001g_globals.h</text>
</a>
</g>
</g>
<!-- Node1&#45;&gt;Node14 -->
<g id="edge13_Node000001_Node000014" class="edge">
<title>Node1&#45;&gt;Node14</title>
<g id="a_edge13_Node000001_Node000014"><a xlink:title=" ">
<path fill="none" stroke="#63b8ff" d="M1000.57,-227.05C1016.09,-220.22 1032.03,-209.99 1041,-195 1052.14,-176.39 1033.77,-152.56 1021.88,-140.05"/>
<polygon fill="#63b8ff" stroke="#63b8ff" points="999,-223.9 991.02,-230.87 1001.6,-230.4 999,-223.9"/>
</a>
</g>
</g>
<!-- Node16 -->
<g id="Node000016" class="node">
<title>Node16</title>
<g id="a_Node000016"><a xlink:href="max30001g__typedefs_8h.html" target="_top" xlink:title=" ">
<polygon fill="white" stroke="#666666" points="1032.5,-195 883.5,-195 883.5,-176 1032.5,-176 1032.5,-195"/>
<text text-anchor="middle" x="958" y="-183" font-family="Helvetica,sans-Serif" font-size="10.00">src/max30001g_typedefs.h</text>
</a>
</g>
</g>
<!-- Node1&#45;&gt;Node16 -->
<g id="edge16_Node000001_Node000016" class="edge">
<title>Node1&#45;&gt;Node16</title>
<g id="a_edge16_Node000001_Node000016"><a xlink:title=" ">
<path fill="none" stroke="#63b8ff" d="M958,-220.66C958,-211.93 958,-201.99 958,-195.09"/>
<polygon fill="#63b8ff" stroke="#63b8ff" points="954.5,-220.75 958,-230.75 961.5,-220.75 954.5,-220.75"/>
</a>
</g>
</g>
<!-- Node3 -->
<g id="Node000003" class="node">
<title>Node3</title>
<g id="a_Node000003"><a xlink:href="max30001g_8cpp.html" target="_top" xlink:title=" ">
<polygon fill="white" stroke="#666666" points="112,-24.5 0,-24.5 0,-5.5 112,-5.5 112,-24.5"/>
<text text-anchor="middle" x="56" y="-12.5" font-family="Helvetica,sans-Serif" font-size="10.00">src/max30001g.cpp</text>
</a>
</g>
</g>
<!-- Node2&#45;&gt;Node3 -->
<g id="edge2_Node000002_Node000003" class="edge">
<title>Node2&#45;&gt;Node3</title>
<g id="a_edge2_Node000002_Node000003"><a xlink:title=" ">
<path fill="none" stroke="#63b8ff" d="M814.41,-74.07C685.99,-72.45 377.17,-64.94 121,-30 111.16,-28.66 100.6,-26.64 90.91,-24.55"/>
<polygon fill="#63b8ff" stroke="#63b8ff" points="814.4,-77.57 824.45,-74.18 814.49,-70.57 814.4,-77.57"/>
</a>
</g>
</g>
<!-- Node4 -->
<g id="Node000004" class="node">
<title>Node4</title>
<g id="a_Node000004"><a xlink:href="max30001g__calibration_8cpp.html" target="_top" xlink:title=" ">
<polygon fill="white" stroke="#666666" points="299.5,-24.5 130.5,-24.5 130.5,-5.5 299.5,-5.5 299.5,-24.5"/>
<text text-anchor="middle" x="215" y="-12.5" font-family="Helvetica,sans-Serif" font-size="10.00">src/max30001g_calibration.cpp</text>
</a>
</g>
</g>
<!-- Node2&#45;&gt;Node4 -->
<g id="edge3_Node000002_Node000004" class="edge">
<title>Node2&#45;&gt;Node4</title>
<g id="a_edge3_Node000002_Node000004"><a xlink:title=" ">
<path fill="none" stroke="#63b8ff" d="M814.16,-71.11C710.35,-65 492.4,-50.84 309,-30 295.72,-28.49 281.43,-26.54 268.11,-24.57"/>
<polygon fill="#63b8ff" stroke="#63b8ff" points="813.96,-74.6 824.15,-71.69 814.37,-67.61 813.96,-74.6"/>
</a>
</g>
</g>
<!-- Node5 -->
<g id="Node000005" class="node">
<title>Node5</title>
<g id="a_Node000005"><a xlink:href="max30001g__comm_8cpp.html" target="_top" xlink:title=" ">
<polygon fill="white" stroke="#666666" points="466,-24.5 318,-24.5 318,-5.5 466,-5.5 466,-24.5"/>
<text text-anchor="middle" x="392" y="-12.5" font-family="Helvetica,sans-Serif" font-size="10.00">src/max30001g_comm.cpp</text>
</a>
</g>
</g>
<!-- Node2&#45;&gt;Node5 -->
<g id="edge4_Node000002_Node000005" class="edge">
<title>Node2&#45;&gt;Node5</title>
<g id="a_edge4_Node000002_Node000005"><a xlink:title=" ">
<path fill="none" stroke="#63b8ff" d="M814.18,-68.81C735.66,-61.22 594.87,-46.76 475,-30 463.57,-28.4 451.29,-26.46 439.77,-24.53"/>
<polygon fill="#63b8ff" stroke="#63b8ff" points="814.08,-72.32 824.37,-69.79 814.75,-65.35 814.08,-72.32"/>
</a>
</g>
</g>
<!-- Node6 -->
<g id="Node000006" class="node">
<title>Node6</title>
<g id="a_Node000006"><a xlink:href="max30001g__configure__bioz_8cpp.html" target="_top" xlink:title=" ">
<polygon fill="white" stroke="#666666" points="626,-30 484,-30 484,0 626,0 626,-30"/>
<text text-anchor="start" x="492" y="-18" font-family="Helvetica,sans-Serif" font-size="10.00">src/max30001g_configure</text>
<text text-anchor="middle" x="555" y="-7" font-family="Helvetica,sans-Serif" font-size="10.00">_bioz.cpp</text>
</a>
</g>
</g>
<!-- Node2&#45;&gt;Node6 -->
<g id="edge5_Node000002_Node000006" class="edge">
<title>Node2&#45;&gt;Node6</title>
<g id="a_edge5_Node000002_Node000006"><a xlink:title=" ">
<path fill="none" stroke="#63b8ff" d="M818.45,-64.16C764.84,-54.36 684.08,-39.6 626.12,-29"/>
<polygon fill="#63b8ff" stroke="#63b8ff" points="818,-67.64 828.47,-65.99 819.26,-60.75 818,-67.64"/>
</a>
</g>
</g>
<!-- Node7 -->
<g id="Node000007" class="node">
<title>Node7</title>
<g id="a_Node000007"><a xlink:href="max30001g__configure__ecg_8cpp.html" target="_top" xlink:title=" ">
<polygon fill="white" stroke="#666666" points="786,-30 644,-30 644,0 786,0 786,-30"/>
<text text-anchor="start" x="652" y="-18" font-family="Helvetica,sans-Serif" font-size="10.00">src/max30001g_configure</text>
<text text-anchor="middle" x="715" y="-7" font-family="Helvetica,sans-Serif" font-size="10.00">_ecg.cpp</text>
</a>
</g>
</g>
<!-- Node2&#45;&gt;Node7 -->
<g id="edge6_Node000002_Node000007" class="edge">
<title>Node2&#45;&gt;Node7</title>
<g id="a_edge6_Node000002_Node000007"><a xlink:title=" ">
<path fill="none" stroke="#63b8ff" d="M842.06,-62.46C816.33,-53.05 780.52,-39.95 753.47,-30.06"/>
<polygon fill="#63b8ff" stroke="#63b8ff" points="841.14,-65.85 851.73,-65.99 843.54,-59.27 841.14,-65.85"/>
</a>
</g>
</g>
<!-- Node8 -->
<g id="Node000008" class="node">
<title>Node8</title>
<g id="a_Node000008"><a xlink:href="max30001g__configure__leads_8cpp.html" target="_top" xlink:title=" ">
<polygon fill="white" stroke="#666666" points="946,-30 804,-30 804,0 946,0 946,-30"/>
<text text-anchor="start" x="812" y="-18" font-family="Helvetica,sans-Serif" font-size="10.00">src/max30001g_configure</text>
<text text-anchor="middle" x="875" y="-7" font-family="Helvetica,sans-Serif" font-size="10.00">_leads.cpp</text>
</a>
</g>
</g>
<!-- Node2&#45;&gt;Node8 -->
<g id="edge7_Node000002_Node000008" class="edge">
<title>Node2&#45;&gt;Node8</title>
<g id="a_edge7_Node000002_Node000008"><a xlink:title=" ">
<path fill="none" stroke="#63b8ff" d="M875,-55.65C875,-47.36 875,-37.78 875,-30.11"/>
<polygon fill="#63b8ff" stroke="#63b8ff" points="871.5,-55.87 875,-65.87 878.5,-55.87 871.5,-55.87"/>
</a>
</g>
</g>
<!-- Node9 -->
<g id="Node000009" class="node">
<title>Node9</title>
<g id="a_Node000009"><a xlink:href="max30001g__configure__rtor_8cpp.html" target="_top" xlink:title=" ">
<polygon fill="white" stroke="#666666" points="1106,-30 964,-30 964,0 1106,0 1106,-30"/>
<text text-anchor="start" x="972" y="-18" font-family="Helvetica,sans-Serif" font-size="10.00">src/max30001g_configure</text>
<text text-anchor="middle" x="1035" y="-7" font-family="Helvetica,sans-Serif" font-size="10.00">_rtor.cpp</text>
</a>
</g>
</g>
<!-- Node2&#45;&gt;Node9 -->
<g id="edge8_Node000002_Node000009" class="edge">
<title>Node2&#45;&gt;Node9</title>
<g id="a_edge8_Node000002_Node000009"><a xlink:title=" ">
<path fill="none" stroke="#63b8ff" d="M907.94,-62.46C933.67,-53.05 969.48,-39.95 996.53,-30.06"/>
<polygon fill="#63b8ff" stroke="#63b8ff" points="906.46,-59.27 898.27,-65.99 908.86,-65.85 906.46,-59.27"/>
</a>
</g>
</g>
<!-- Node10 -->
<g id="Node000010" class="node">
<title>Node10</title>
<g id="a_Node000010"><a xlink:href="max30001g__interrupt_8cpp.html" target="_top" xlink:title=" ">
<polygon fill="white" stroke="#666666" points="1283.5,-24.5 1124.5,-24.5 1124.5,-5.5 1283.5,-5.5 1283.5,-24.5"/>
<text text-anchor="middle" x="1204" y="-12.5" font-family="Helvetica,sans-Serif" font-size="10.00">src/max30001g_interrupt.cpp</text>
</a>
</g>
</g>
<!-- Node2&#45;&gt;Node10 -->
<g id="edge9_Node000002_Node000010" class="edge">
<title>Node2&#45;&gt;Node10</title>
<g id="a_edge9_Node000002_Node000010"><a xlink:title=" ">
<path fill="none" stroke="#63b8ff" d="M932.69,-64.24C996.11,-52.96 1096.87,-35.05 1156.1,-24.52"/>
<polygon fill="#63b8ff" stroke="#63b8ff" points="932.07,-60.8 922.84,-65.99 933.3,-67.69 932.07,-60.8"/>
</a>
</g>
</g>
<!-- Node11 -->
<g id="Node000011" class="node">
<title>Node11</title>
<g id="a_Node000011"><a xlink:href="max30001g__readdata_8cpp.html" target="_top" xlink:title=" ">
<polygon fill="white" stroke="#666666" points="1462.5,-24.5 1301.5,-24.5 1301.5,-5.5 1462.5,-5.5 1462.5,-24.5"/>
<text text-anchor="middle" x="1382" y="-12.5" font-family="Helvetica,sans-Serif" font-size="10.00">src/max30001g_readdata.cpp</text>
</a>
</g>
</g>
<!-- Node2&#45;&gt;Node11 -->
<g id="edge10_Node000002_Node000011" class="edge">
<title>Node2&#45;&gt;Node11</title>
<g id="a_edge10_Node000002_Node000011"><a xlink:title=" ">
<path fill="none" stroke="#63b8ff" d="M935.9,-65.94C1095.47,-46.92 1137.65,-50.01 1293,-30 1305.26,-28.42 1318.42,-26.48 1330.77,-24.56"/>
<polygon fill="#63b8ff" stroke="#63b8ff" points="935.23,-62.5 925.72,-67.17 936.07,-69.45 935.23,-62.5"/>
</a>
</g>
</g>
<!-- Node12 -->
<g id="Node000012" class="node">
<title>Node12</title>
<g id="a_Node000012"><a xlink:href="max30001g__regs_8cpp.html" target="_top" xlink:title=" ">
<polygon fill="white" stroke="#666666" points="1619,-24.5 1481,-24.5 1481,-5.5 1619,-5.5 1619,-24.5"/>
<text text-anchor="middle" x="1550" y="-12.5" font-family="Helvetica,sans-Serif" font-size="10.00">src/max30001g_regs.cpp</text>
</a>
</g>
</g>
<!-- Node2&#45;&gt;Node12 -->
<g id="edge11_Node000002_Node000012" class="edge">
<title>Node2&#45;&gt;Node12</title>
<g id="a_edge11_Node000002_Node000012"><a xlink:title=" ">
<path fill="none" stroke="#63b8ff" d="M935.74,-66.01C1174.63,-41.69 1237.83,-58.78 1472,-30 1483.47,-28.59 1495.81,-26.6 1507.22,-24.56"/>
<polygon fill="#63b8ff" stroke="#63b8ff" points="935.29,-62.54 925.71,-67.05 936.01,-69.5 935.29,-62.54"/>
</a>
</g>
</g>
<!-- Node13 -->
<g id="Node000013" class="node">
<title>Node13</title>
<g id="a_Node000013"><a xlink:href="max30001g__system_8cpp.html" target="_top" xlink:title=" ">
<polygon fill="white" stroke="#666666" points="1790.5,-24.5 1637.5,-24.5 1637.5,-5.5 1790.5,-5.5 1790.5,-24.5"/>
<text text-anchor="middle" x="1714" y="-12.5" font-family="Helvetica,sans-Serif" font-size="10.00">src/max30001g_system.cpp</text>
</a>
</g>
</g>
<!-- Node2&#45;&gt;Node13 -->
<g id="edge12_Node000002_Node000013" class="edge">
<title>Node2&#45;&gt;Node13</title>
<g id="a_edge12_Node000002_Node000013"><a xlink:title=" ">
<path fill="none" stroke="#63b8ff" d="M935.81,-66.03C1243.72,-36.9 1324.63,-62.47 1628,-30 1640.78,-28.63 1654.56,-26.63 1667.26,-24.56"/>
<polygon fill="#63b8ff" stroke="#63b8ff" points="935.32,-62.56 925.7,-66.99 935.99,-69.53 935.32,-62.56"/>
</a>
</g>
</g>
<!-- Node14&#45;&gt;Node2 -->
<g id="edge14_Node000014_Node000002" class="edge">
<title>Node14&#45;&gt;Node2</title>
<g id="a_edge14_Node000014_Node000002"><a xlink:title=" ">
<path fill="none" stroke="#63b8ff" d="M981.21,-117.29C955.63,-107.47 920.33,-93.91 897.58,-85.17"/>
<polygon fill="#63b8ff" stroke="#63b8ff" points="980.24,-120.67 990.83,-120.98 982.75,-114.13 980.24,-120.67"/>
</a>
</g>
</g>
<!-- Node15 -->
<g id="Node000015" class="node">
<title>Node15</title>
<g id="a_Node000015"><a xlink:href="max30001g__globals_8cpp.html" target="_top" xlink:title=" ">
<polygon fill="white" stroke="#666666" points="1096,-85 944,-85 944,-66 1096,-66 1096,-85"/>
<text text-anchor="middle" x="1020" y="-73" font-family="Helvetica,sans-Serif" font-size="10.00">src/max30001g_globals.cpp</text>
</a>
</g>
</g>
<!-- Node14&#45;&gt;Node15 -->
<g id="edge15_Node000014_Node000015" class="edge">
<title>Node14&#45;&gt;Node15</title>
<g id="a_edge15_Node000014_Node000015"><a xlink:title=" ">
<path fill="none" stroke="#63b8ff" d="M1015.49,-110.66C1016.64,-101.93 1017.95,-91.99 1018.87,-85.09"/>
<polygon fill="#63b8ff" stroke="#63b8ff" points="1012,-110.38 1014.16,-120.75 1018.94,-111.29 1012,-110.38"/>
</a>
</g>
</g>
<!-- Node16&#45;&gt;Node2 -->
<g id="edge17_Node000016_Node000002" class="edge">
<title>Node16&#45;&gt;Node2</title>
<g id="a_edge17_Node000016_Node000002"><a xlink:title=" ">
<path fill="none" stroke="#63b8ff" d="M945.08,-167.69C927.16,-144.37 895.4,-103.05 881.65,-85.16"/>
<polygon fill="#63b8ff" stroke="#63b8ff" points="942.34,-169.87 951.21,-175.66 947.89,-165.6 942.34,-169.87"/>
</a>
</g>
</g>
<!-- Node16&#45;&gt;Node14 -->
<g id="edge18_Node000016_Node000014" class="edge">
<title>Node16&#45;&gt;Node14</title>
<g id="a_edge18_Node000016_Node000014"><a xlink:title=" ">
<path fill="none" stroke="#63b8ff" d="M974.29,-168.8C984.04,-159.41 996.05,-147.83 1004.09,-140.09"/>
<polygon fill="#63b8ff" stroke="#63b8ff" points="971.85,-166.29 967.08,-175.75 976.71,-171.33 971.85,-166.29"/>
</a>
</g>
</g>
</g>
</svg>
