<?xml version="1.0" encoding="UTF-8" standalone="no"?>
<!DOCTYPE svg PUBLIC "-//W3C//DTD SVG 1.1//EN"
 "http://www.w3.org/Graphics/SVG/1.1/DTD/svg11.dtd">
<!-- Generated by graphviz version 2.43.0 (0)
 -->
<!-- Title: src/max30001g_globals.cpp Pages: 1 -->
<svg width="473pt" height="196pt"
 viewBox="0.00 0.00 473.00 196.00" xmlns="http://www.w3.org/2000/svg" xmlns:xlink="http://www.w3.org/1999/xlink">
<g id="graph0" class="graph" transform="scale(1 1) rotate(0) translate(4 192)">
<title>src/max30001g_globals.cpp</title>
<polygon fill="white" stroke="transparent" points="-4,4 -4,-192 469,-192 469,4 -4,4"/>
<!-- Node1 -->
<g id="node1" class="node">
<title>Node1</title>
<g id="a_node1"><a xlink:title=" ">
<polygon fill="#bfbfbf" stroke="black" points="155.5,-168.5 155.5,-187.5 293.5,-187.5 293.5,-168.5 155.5,-168.5"/>
<text text-anchor="middle" x="224.5" y="-175.5" font-family="Helvetica,sans-Serif" font-size="10.00">src/max30001g_globals.cpp</text>
</a>
</g>
</g>
<!-- Node2 -->
<g id="node2" class="node">
<title>Node2</title>
<g id="a_node2"><a xlink:href="max30001g__globals_8h.html" target="_top" xlink:title=" ">
<polygon fill="white" stroke="black" points="169,-112.5 169,-131.5 280,-131.5 280,-112.5 169,-112.5"/>
<text text-anchor="middle" x="224.5" y="-119.5" font-family="Helvetica,sans-Serif" font-size="10.00">max30001g_globals.h</text>
</a>
</g>
</g>
<!-- Node1&#45;&gt;Node2 -->
<g id="edge1" class="edge">
<title>Node1&#45;&gt;Node2</title>
<path fill="none" stroke="midnightblue" d="M224.5,-168.08C224.5,-161.01 224.5,-150.86 224.5,-141.99"/>
<polygon fill="midnightblue" stroke="midnightblue" points="228,-141.75 224.5,-131.75 221,-141.75 228,-141.75"/>
</g>
<!-- Node3 -->
<g id="node3" class="node">
<title>Node3</title>
<g id="a_node3"><a xlink:title=" ">
<polygon fill="white" stroke="#bfbfbf" points="174,-0.5 174,-19.5 223,-19.5 223,-0.5 174,-0.5"/>
<text text-anchor="middle" x="198.5" y="-7.5" font-family="Helvetica,sans-Serif" font-size="10.00">stdint.h</text>
</a>
</g>
</g>
<!-- Node2&#45;&gt;Node3 -->
<g id="edge2" class="edge">
<title>Node2&#45;&gt;Node3</title>
<path fill="none" stroke="midnightblue" d="M194.25,-112.49C176.37,-105.73 155.2,-94.29 144.5,-76 133.25,-56.76 154.37,-37.46 173.41,-24.95"/>
<polygon fill="midnightblue" stroke="midnightblue" points="175.49,-27.78 182.16,-19.55 171.81,-21.82 175.49,-27.78"/>
</g>
<!-- Node4 -->
<g id="node4" class="node">
<title>Node4</title>
<g id="a_node4"><a xlink:href="RingBuffer_8h.html" target="_top" xlink:title=" ">
<polygon fill="white" stroke="black" points="26,-56.5 26,-75.5 97,-75.5 97,-56.5 26,-56.5"/>
<text text-anchor="middle" x="61.5" y="-63.5" font-family="Helvetica,sans-Serif" font-size="10.00">RingBuffer.h</text>
</a>
</g>
</g>
<!-- Node2&#45;&gt;Node4 -->
<g id="edge3" class="edge">
<title>Node2&#45;&gt;Node4</title>
<path fill="none" stroke="midnightblue" d="M198.67,-112.44C171.25,-103.36 127.72,-88.94 97.07,-78.78"/>
<polygon fill="midnightblue" stroke="midnightblue" points="97.8,-75.34 87.21,-75.52 95.6,-81.98 97.8,-75.34"/>
</g>
<!-- Node7 -->
<g id="node7" class="node">
<title>Node7</title>
<g id="a_node7"><a xlink:href="max30001g__defs_8h.html" target="_top" xlink:title=" ">
<polygon fill="white" stroke="black" points="366,-0.5 366,-19.5 465,-19.5 465,-0.5 366,-0.5"/>
<text text-anchor="middle" x="415.5" y="-7.5" font-family="Helvetica,sans-Serif" font-size="10.00">max30001g_defs.h</text>
</a>
</g>
</g>
<!-- Node2&#45;&gt;Node7 -->
<g id="edge7" class="edge">
<title>Node2&#45;&gt;Node7</title>
<path fill="none" stroke="midnightblue" d="M280.2,-117.21C337.36,-112.02 420.65,-100.41 440.5,-76 452,-61.86 441.29,-41.84 430.54,-27.76"/>
<polygon fill="midnightblue" stroke="midnightblue" points="433.1,-25.37 424.04,-19.87 427.7,-29.82 433.1,-25.37"/>
</g>
<!-- Node8 -->
<g id="node8" class="node">
<title>Node8</title>
<g id="a_node8"><a xlink:href="max30001g__typedefs_8h.html" target="_top" xlink:title=" ">
<polygon fill="white" stroke="black" points="313.5,-56.5 313.5,-75.5 431.5,-75.5 431.5,-56.5 313.5,-56.5"/>
<text text-anchor="middle" x="372.5" y="-63.5" font-family="Helvetica,sans-Serif" font-size="10.00">max30001g_typedefs.h</text>
</a>
</g>
</g>
<!-- Node2&#45;&gt;Node8 -->
<g id="edge8" class="edge">
<title>Node2&#45;&gt;Node8</title>
<path fill="none" stroke="midnightblue" d="M247.95,-112.44C272.63,-103.44 311.69,-89.19 339.48,-79.05"/>
<polygon fill="midnightblue" stroke="midnightblue" points="340.96,-82.23 349.16,-75.52 338.56,-75.66 340.96,-82.23"/>
</g>
<!-- Node9 -->
<g id="node9" class="node">
<title>Node9</title>
<g id="a_node9"><a xlink:href="max30001g__regs__typedefs_8h.html" target="_top" xlink:title=" ">
<polygon fill="white" stroke="black" points="153.5,-56.5 153.5,-75.5 295.5,-75.5 295.5,-56.5 153.5,-56.5"/>
<text text-anchor="middle" x="224.5" y="-63.5" font-family="Helvetica,sans-Serif" font-size="10.00">max30001g_regs_typedefs.h</text>
</a>
</g>
</g>
<!-- Node2&#45;&gt;Node9 -->
<g id="edge11" class="edge">
<title>Node2&#45;&gt;Node9</title>
<path fill="none" stroke="midnightblue" d="M224.5,-112.08C224.5,-105.01 224.5,-94.86 224.5,-85.99"/>
<polygon fill="midnightblue" stroke="midnightblue" points="228,-85.75 224.5,-75.75 221,-85.75 228,-85.75"/>
</g>
<!-- Node4&#45;&gt;Node3 -->
<g id="edge5" class="edge">
<title>Node4&#45;&gt;Node3</title>
<path fill="none" stroke="midnightblue" d="M83.21,-56.44C105.85,-47.52 141.57,-33.44 167.25,-23.32"/>
<polygon fill="midnightblue" stroke="midnightblue" points="168.87,-26.44 176.89,-19.52 166.31,-19.93 168.87,-26.44"/>
</g>
<!-- Node5 -->
<g id="node5" class="node">
<title>Node5</title>
<g id="a_node5"><a xlink:title=" ">
<polygon fill="white" stroke="#bfbfbf" points="0,-0.5 0,-19.5 49,-19.5 49,-0.5 0,-0.5"/>
<text text-anchor="middle" x="24.5" y="-7.5" font-family="Helvetica,sans-Serif" font-size="10.00">string.h</text>
</a>
</g>
</g>
<!-- Node4&#45;&gt;Node5 -->
<g id="edge4" class="edge">
<title>Node4&#45;&gt;Node5</title>
<path fill="none" stroke="midnightblue" d="M55.39,-56.08C50.22,-48.53 42.65,-37.49 36.31,-28.23"/>
<polygon fill="midnightblue" stroke="midnightblue" points="39.04,-26.02 30.5,-19.75 33.26,-29.98 39.04,-26.02"/>
</g>
<!-- Node6 -->
<g id="node6" class="node">
<title>Node6</title>
<g id="a_node6"><a xlink:title=" ">
<polygon fill="white" stroke="#bfbfbf" points="67.5,-0.5 67.5,-19.5 129.5,-19.5 129.5,-0.5 67.5,-0.5"/>
<text text-anchor="middle" x="98.5" y="-7.5" font-family="Helvetica,sans-Serif" font-size="10.00">type_traits</text>
</a>
</g>
</g>
<!-- Node4&#45;&gt;Node6 -->
<g id="edge6" class="edge">
<title>Node4&#45;&gt;Node6</title>
<path fill="none" stroke="midnightblue" d="M67.61,-56.08C72.78,-48.53 80.35,-37.49 86.69,-28.23"/>
<polygon fill="midnightblue" stroke="midnightblue" points="89.74,-29.98 92.5,-19.75 83.96,-26.02 89.74,-29.98"/>
</g>
<!-- Node8&#45;&gt;Node3 -->
<g id="edge9" class="edge">
<title>Node8&#45;&gt;Node3</title>
<path fill="none" stroke="midnightblue" d="M344.93,-56.44C314.53,-47.01 265.6,-31.82 232.76,-21.63"/>
<polygon fill="midnightblue" stroke="midnightblue" points="233.72,-18.26 223.13,-18.64 231.64,-24.95 233.72,-18.26"/>
</g>
<!-- Node8&#45;&gt;Node7 -->
<g id="edge10" class="edge">
<title>Node8&#45;&gt;Node7</title>
<path fill="none" stroke="midnightblue" d="M379.6,-56.08C385.74,-48.38 394.77,-37.03 402.24,-27.65"/>
<polygon fill="midnightblue" stroke="midnightblue" points="405.04,-29.75 408.53,-19.75 399.56,-25.39 405.04,-29.75"/>
</g>
<!-- Node9&#45;&gt;Node3 -->
<g id="edge12" class="edge">
<title>Node9&#45;&gt;Node3</title>
<path fill="none" stroke="midnightblue" d="M220.21,-56.08C216.65,-48.69 211.48,-37.95 207.08,-28.81"/>
<polygon fill="midnightblue" stroke="midnightblue" points="210.21,-27.24 202.71,-19.75 203.9,-30.28 210.21,-27.24"/>
</g>
</g>
</svg>
