<?xml version="1.0" encoding="UTF-8" standalone="no"?>
<!DOCTYPE svg PUBLIC "-//W3C//DTD SVG 1.1//EN"
 "http://www.w3.org/Graphics/SVG/1.1/DTD/svg11.dtd">
<!-- Generated by graphviz version 2.43.0 (0)
 -->
<!-- Title: src/max30001g_globals.cpp Pages: 1 -->
<svg width="426pt" height="196pt"
 viewBox="0.00 0.00 426.02 196.00" xmlns="http://www.w3.org/2000/svg" xmlns:xlink="http://www.w3.org/1999/xlink">

<svg id="main" version="1.1" xmlns="http://www.w3.org/2000/svg" xmlns:xlink="http://www.w3.org/1999/xlink" xml:space="preserve" onload="init(evt)">
<style type="text/css"><![CDATA[
.node, .edge {opacity: 0.7;}
.node.selected, .edge.selected {opacity: 1;}
.edge:hover path { stroke: red; }
.edge:hover polygon { stroke: red; fill: red; }
]]></style>
<script type="application/ecmascript" xlink:href="svg.min.js"/>
<svg id="graph" class="graph">
<g id="graph0" class="graph" transform="scale(1 1) rotate(0) translate(4 192)">
<title>src/max30001g_globals.cpp</title>
<polygon fill="white" stroke="transparent" points="-4,4 -4,-192 422.02,-192 422.02,4 -4,4"/>
<!-- Node1 -->
<g id="node1" class="node">
<title>Node1</title>
<g id="a_node1"><a xlink:title=" ">
<polygon fill="#bfbfbf" stroke="black" points="108.52,-168.5 108.52,-187.5 246.52,-187.5 246.52,-168.5 108.52,-168.5"/>
<text text-anchor="middle" x="177.52" y="-175.5" font-family="Helvetica,sans-Serif" font-size="10.00">src/max30001g_globals.cpp</text>
</a>
</g>
</g>
<!-- Node2 -->
<g id="node2" class="node">
<title>Node2</title>
<g id="a_node2"><a xlink:href="max30001g__globals_8h.html" target="_top" xlink:title=" ">
<polygon fill="white" stroke="black" points="122.02,-112.5 122.02,-131.5 233.02,-131.5 233.02,-112.5 122.02,-112.5"/>
<text text-anchor="middle" x="177.52" y="-119.5" font-family="Helvetica,sans-Serif" font-size="10.00">max30001g_globals.h</text>
</a>
</g>
</g>
<!-- Node1&#45;&gt;Node2 -->
<g id="edge1" class="edge">
<title>Node1&#45;&gt;Node2</title>
<path fill="none" stroke="midnightblue" d="M177.52,-168.08C177.52,-161.01 177.52,-150.86 177.52,-141.99"/>
<polygon fill="midnightblue" stroke="midnightblue" points="181.02,-141.75 177.52,-131.75 174.02,-141.75 181.02,-141.75"/>
</g>
<!-- Node3 -->
<g id="node3" class="node">
<title>Node3</title>
<g id="a_node3"><a xlink:title=" ">
<polygon fill="white" stroke="#bfbfbf" points="153.02,-0.5 153.02,-19.5 202.02,-19.5 202.02,-0.5 153.02,-0.5"/>
<text text-anchor="middle" x="177.52" y="-7.5" font-family="Helvetica,sans-Serif" font-size="10.00">stdint.h</text>
</a>
</g>
</g>
<!-- Node2&#45;&gt;Node3 -->
<g id="edge2" class="edge">
<title>Node2&#45;&gt;Node3</title>
<path fill="none" stroke="midnightblue" d="M121.84,-113.65C77.82,-106.56 21.53,-94.21 7.52,-76 -29.21,-28.29 82.94,-15.59 142.67,-12.22"/>
<polygon fill="midnightblue" stroke="midnightblue" points="143.01,-15.7 152.82,-11.7 142.66,-8.71 143.01,-15.7"/>
</g>
<!-- Node4 -->
<g id="node4" class="node">
<title>Node4</title>
<g id="a_node4"><a xlink:title=" ">
<polygon fill="white" stroke="#bfbfbf" points="17.02,-56.5 17.02,-75.5 88.02,-75.5 88.02,-56.5 17.02,-56.5"/>
<text text-anchor="middle" x="52.52" y="-63.5" font-family="Helvetica,sans-Serif" font-size="10.00">RingBuffer.h</text>
</a>
</g>
</g>
<!-- Node2&#45;&gt;Node4 -->
<g id="edge3" class="edge">
<title>Node2&#45;&gt;Node4</title>
<path fill="none" stroke="midnightblue" d="M157.71,-112.44C137.23,-103.6 105.04,-89.69 81.65,-79.59"/>
<polygon fill="midnightblue" stroke="midnightblue" points="82.8,-76.27 72.23,-75.52 80.03,-82.7 82.8,-76.27"/>
</g>
<!-- Node5 -->
<g id="node5" class="node">
<title>Node5</title>
<g id="a_node5"><a xlink:href="max30001g__defs_8h.html" target="_top" xlink:title=" ">
<polygon fill="white" stroke="black" points="319.02,-0.5 319.02,-19.5 418.02,-19.5 418.02,-0.5 319.02,-0.5"/>
<text text-anchor="middle" x="368.52" y="-7.5" font-family="Helvetica,sans-Serif" font-size="10.00">max30001g_defs.h</text>
</a>
</g>
</g>
<!-- Node2&#45;&gt;Node5 -->
<g id="edge4" class="edge">
<title>Node2&#45;&gt;Node5</title>
<path fill="none" stroke="midnightblue" d="M233.22,-117.21C290.38,-112.02 373.67,-100.41 393.52,-76 405.02,-61.86 394.31,-41.84 383.56,-27.76"/>
<polygon fill="midnightblue" stroke="midnightblue" points="386.12,-25.37 377.06,-19.87 380.72,-29.82 386.12,-25.37"/>
</g>
<!-- Node6 -->
<g id="node6" class="node">
<title>Node6</title>
<g id="a_node6"><a xlink:href="max30001g__typedefs_8h.html" target="_top" xlink:title=" ">
<polygon fill="white" stroke="black" points="266.52,-56.5 266.52,-75.5 384.52,-75.5 384.52,-56.5 266.52,-56.5"/>
<text text-anchor="middle" x="325.52" y="-63.5" font-family="Helvetica,sans-Serif" font-size="10.00">max30001g_typedefs.h</text>
</a>
</g>
</g>
<!-- Node2&#45;&gt;Node6 -->
<g id="edge5" class="edge">
<title>Node2&#45;&gt;Node6</title>
<path fill="none" stroke="midnightblue" d="M200.97,-112.44C225.65,-103.44 264.7,-89.19 292.5,-79.05"/>
<polygon fill="midnightblue" stroke="midnightblue" points="293.98,-82.23 302.18,-75.52 291.58,-75.66 293.98,-82.23"/>
</g>
<!-- Node7 -->
<g id="node7" class="node">
<title>Node7</title>
<g id="a_node7"><a xlink:href="max30001g__regs__typedefs_8h.html" target="_top" xlink:title=" ">
<polygon fill="white" stroke="black" points="106.52,-56.5 106.52,-75.5 248.52,-75.5 248.52,-56.5 106.52,-56.5"/>
<text text-anchor="middle" x="177.52" y="-63.5" font-family="Helvetica,sans-Serif" font-size="10.00">max30001g_regs_typedefs.h</text>
</a>
</g>
</g>
<!-- Node2&#45;&gt;Node7 -->
<g id="edge8" class="edge">
<title>Node2&#45;&gt;Node7</title>
<path fill="none" stroke="midnightblue" d="M177.52,-112.08C177.52,-105.01 177.52,-94.86 177.52,-85.99"/>
<polygon fill="midnightblue" stroke="midnightblue" points="181.02,-85.75 177.52,-75.75 174.02,-85.75 181.02,-85.75"/>
</g>
<!-- Node6&#45;&gt;Node3 -->
<g id="edge6" class="edge">
<title>Node6&#45;&gt;Node3</title>
<path fill="none" stroke="midnightblue" d="M302.07,-56.44C277.39,-47.44 238.33,-33.19 210.54,-23.05"/>
<polygon fill="midnightblue" stroke="midnightblue" points="211.45,-19.66 200.86,-19.52 209.06,-26.23 211.45,-19.66"/>
</g>
<!-- Node6&#45;&gt;Node5 -->
<g id="edge7" class="edge">
<title>Node6&#45;&gt;Node5</title>
<path fill="none" stroke="midnightblue" d="M332.62,-56.08C338.76,-48.38 347.79,-37.03 355.26,-27.65"/>
<polygon fill="midnightblue" stroke="midnightblue" points="358.06,-29.75 361.55,-19.75 352.58,-25.39 358.06,-29.75"/>
</g>
<!-- Node7&#45;&gt;Node3 -->
<g id="edge9" class="edge">
<title>Node7&#45;&gt;Node3</title>
<path fill="none" stroke="midnightblue" d="M177.52,-56.08C177.52,-49.01 177.52,-38.86 177.52,-29.99"/>
<polygon fill="midnightblue" stroke="midnightblue" points="181.02,-29.75 177.52,-19.75 174.02,-29.75 181.02,-29.75"/>
</g>
</g>
</svg>
</svg>

<style type='text/css'>
<![CDATA[
[data-mouse-over-selected='false'] { opacity: 0.7; }
[data-mouse-over-selected='true']  { opacity: 1.0; }
]]>
</style>
<script type="application/ecmascript"><![CDATA[
document.addEventListener('DOMContentLoaded', (event) => {
  highlightEdges();
  highlightAdjacentNodes();
});
]]></script>
</svg>
