<?xml version="1.0" encoding="UTF-8" standalone="no"?>
<!DOCTYPE svg PUBLIC "-//W3C//DTD SVG 1.1//EN"
 "http://www.w3.org/Graphics/SVG/1.1/DTD/svg11.dtd">
<!-- Generated by graphviz version 2.43.0 (0)
 -->
<!-- Title: src/max30001g.h Pages: 1 -->
<svg width="1643pt" height="95pt"
 viewBox="0.00 0.00 1643.00 95.00" xmlns="http://www.w3.org/2000/svg" xmlns:xlink="http://www.w3.org/1999/xlink">
<g id="graph0" class="graph" transform="scale(1 1) rotate(0) translate(4 91)">
<title>src/max30001g.h</title>
<polygon fill="white" stroke="transparent" points="-4,4 -4,-91 1639,-91 1639,4 -4,4"/>
<!-- Node1 -->
<g id="node1" class="node">
<title>Node1</title>
<g id="a_node1"><a xlink:title=" ">
<polygon fill="#bfbfbf" stroke="black" points="752,-67.5 752,-86.5 844,-86.5 844,-67.5 752,-67.5"/>
<text text-anchor="middle" x="798" y="-74.5" font-family="Helvetica,sans-Serif" font-size="10.00">src/max30001g.h</text>
</a>
</g>
</g>
<!-- Node2 -->
<g id="node2" class="node">
<title>Node2</title>
<g id="a_node2"><a xlink:href="max30001g_8cpp.html" target="_top" xlink:title=" ">
<polygon fill="white" stroke="black" points="0,-6 0,-25 102,-25 102,-6 0,-6"/>
<text text-anchor="middle" x="51" y="-13" font-family="Helvetica,sans-Serif" font-size="10.00">src/max30001g.cpp</text>
</a>
</g>
</g>
<!-- Node1&#45;&gt;Node2 -->
<g id="edge1" class="edge">
<title>Node1&#45;&gt;Node2</title>
<path fill="none" stroke="midnightblue" d="M741.67,-75.57C623.89,-73.97 343.27,-66.4 111,-31 101.47,-29.55 91.22,-27.32 81.94,-25.05"/>
<polygon fill="midnightblue" stroke="midnightblue" points="741.84,-79.08 751.88,-75.7 741.92,-72.08 741.84,-79.08"/>
</g>
<!-- Node3 -->
<g id="node3" class="node">
<title>Node3</title>
<g id="a_node3"><a xlink:href="max30001g__calibration_8cpp.html" target="_top" xlink:title=" ">
<polygon fill="white" stroke="black" points="120,-6 120,-25 272,-25 272,-6 120,-6"/>
<text text-anchor="middle" x="196" y="-13" font-family="Helvetica,sans-Serif" font-size="10.00">src/max30001g_calibration.cpp</text>
</a>
</g>
</g>
<!-- Node1&#45;&gt;Node3 -->
<g id="edge2" class="edge">
<title>Node1&#45;&gt;Node3</title>
<path fill="none" stroke="midnightblue" d="M741.61,-72.61C646.41,-66.56 447.88,-52.46 281,-31 268.23,-29.36 254.45,-27.18 241.77,-25.02"/>
<polygon fill="midnightblue" stroke="midnightblue" points="741.67,-76.12 751.87,-73.26 742.11,-69.14 741.67,-76.12"/>
</g>
<!-- Node4 -->
<g id="node4" class="node">
<title>Node4</title>
<g id="a_node4"><a xlink:href="max30001g__comm_8cpp.html" target="_top" xlink:title=" ">
<polygon fill="white" stroke="black" points="290,-6 290,-25 424,-25 424,-6 290,-6"/>
<text text-anchor="middle" x="357" y="-13" font-family="Helvetica,sans-Serif" font-size="10.00">src/max30001g_comm.cpp</text>
</a>
</g>
</g>
<!-- Node1&#45;&gt;Node4 -->
<g id="edge3" class="edge">
<title>Node1&#45;&gt;Node4</title>
<path fill="none" stroke="midnightblue" d="M741.58,-70.21C669.73,-62.57 541.82,-48.07 433,-31 421.99,-29.27 410.12,-27.14 399.12,-25.05"/>
<polygon fill="midnightblue" stroke="midnightblue" points="741.46,-73.72 751.77,-71.29 742.19,-66.76 741.46,-73.72"/>
</g>
<!-- Node5 -->
<g id="node5" class="node">
<title>Node5</title>
<g id="a_node5"><a xlink:href="max30001g__configure__bioz_8cpp.html" target="_top" xlink:title=" ">
<polygon fill="white" stroke="black" points="442,-0.5 442,-30.5 570,-30.5 570,-0.5 442,-0.5"/>
<text text-anchor="start" x="450" y="-18.5" font-family="Helvetica,sans-Serif" font-size="10.00">src/max30001g_configure</text>
<text text-anchor="middle" x="506" y="-7.5" font-family="Helvetica,sans-Serif" font-size="10.00">_bioz.cpp</text>
</a>
</g>
</g>
<!-- Node1&#45;&gt;Node5 -->
<g id="edge4" class="edge">
<title>Node1&#45;&gt;Node5</title>
<path fill="none" stroke="midnightblue" d="M746.06,-65.42C696.88,-55.4 622.91,-40.32 570.09,-29.56"/>
<polygon fill="midnightblue" stroke="midnightblue" points="745.67,-68.91 756.16,-67.48 747.06,-62.05 745.67,-68.91"/>
</g>
<!-- Node6 -->
<g id="node6" class="node">
<title>Node6</title>
<g id="a_node6"><a xlink:href="max30001g__configure__ecg_8cpp.html" target="_top" xlink:title=" ">
<polygon fill="white" stroke="black" points="588,-0.5 588,-30.5 716,-30.5 716,-0.5 588,-0.5"/>
<text text-anchor="start" x="596" y="-18.5" font-family="Helvetica,sans-Serif" font-size="10.00">src/max30001g_configure</text>
<text text-anchor="middle" x="652" y="-7.5" font-family="Helvetica,sans-Serif" font-size="10.00">_ecg.cpp</text>
</a>
</g>
</g>
<!-- Node1&#45;&gt;Node6 -->
<g id="edge5" class="edge">
<title>Node1&#45;&gt;Node6</title>
<path fill="none" stroke="midnightblue" d="M767.55,-63.59C743.88,-53.94 711.03,-40.56 686.41,-30.52"/>
<polygon fill="midnightblue" stroke="midnightblue" points="766.5,-66.94 777.08,-67.48 769.14,-60.46 766.5,-66.94"/>
</g>
<!-- Node7 -->
<g id="node7" class="node">
<title>Node7</title>
<g id="a_node7"><a xlink:href="max30001g__configure__leads_8cpp.html" target="_top" xlink:title=" ">
<polygon fill="white" stroke="black" points="734,-0.5 734,-30.5 862,-30.5 862,-0.5 734,-0.5"/>
<text text-anchor="start" x="742" y="-18.5" font-family="Helvetica,sans-Serif" font-size="10.00">src/max30001g_configure</text>
<text text-anchor="middle" x="798" y="-7.5" font-family="Helvetica,sans-Serif" font-size="10.00">_leads.cpp</text>
</a>
</g>
</g>
<!-- Node1&#45;&gt;Node7 -->
<g id="edge6" class="edge">
<title>Node1&#45;&gt;Node7</title>
<path fill="none" stroke="midnightblue" d="M798,-57.23C798,-48.59 798,-38.5 798,-30.52"/>
<polygon fill="midnightblue" stroke="midnightblue" points="794.5,-57.48 798,-67.48 801.5,-57.48 794.5,-57.48"/>
</g>
<!-- Node8 -->
<g id="node8" class="node">
<title>Node8</title>
<g id="a_node8"><a xlink:href="max30001g__configure__rtor_8cpp.html" target="_top" xlink:title=" ">
<polygon fill="white" stroke="black" points="880,-0.5 880,-30.5 1008,-30.5 1008,-0.5 880,-0.5"/>
<text text-anchor="start" x="888" y="-18.5" font-family="Helvetica,sans-Serif" font-size="10.00">src/max30001g_configure</text>
<text text-anchor="middle" x="944" y="-7.5" font-family="Helvetica,sans-Serif" font-size="10.00">_rtor.cpp</text>
</a>
</g>
</g>
<!-- Node1&#45;&gt;Node8 -->
<g id="edge7" class="edge">
<title>Node1&#45;&gt;Node8</title>
<path fill="none" stroke="midnightblue" d="M828.45,-63.59C852.12,-53.94 884.97,-40.56 909.59,-30.52"/>
<polygon fill="midnightblue" stroke="midnightblue" points="826.86,-60.46 818.92,-67.48 829.5,-66.94 826.86,-60.46"/>
</g>
<!-- Node9 -->
<g id="node9" class="node">
<title>Node9</title>
<g id="a_node9"><a xlink:href="max30001g__interrupt_8cpp.html" target="_top" xlink:title=" ">
<polygon fill="white" stroke="black" points="1026.5,-6 1026.5,-25 1169.5,-25 1169.5,-6 1026.5,-6"/>
<text text-anchor="middle" x="1098" y="-13" font-family="Helvetica,sans-Serif" font-size="10.00">src/max30001g_interrupt.cpp</text>
</a>
</g>
</g>
<!-- Node1&#45;&gt;Node9 -->
<g id="edge8" class="edge">
<title>Node1&#45;&gt;Node9</title>
<path fill="none" stroke="midnightblue" d="M851.07,-65.47C909.21,-53.94 1001.34,-35.67 1055.1,-25.01"/>
<polygon fill="midnightblue" stroke="midnightblue" points="850.11,-62.1 840.98,-67.48 851.47,-68.96 850.11,-62.1"/>
</g>
<!-- Node10 -->
<g id="node10" class="node">
<title>Node10</title>
<g id="a_node10"><a xlink:href="max30001g__readdata_8cpp.html" target="_top" xlink:title=" ">
<polygon fill="white" stroke="black" points="1187.5,-6 1187.5,-25 1332.5,-25 1332.5,-6 1187.5,-6"/>
<text text-anchor="middle" x="1260" y="-13" font-family="Helvetica,sans-Serif" font-size="10.00">src/max30001g_readdata.cpp</text>
</a>
</g>
</g>
<!-- Node1&#45;&gt;Node10 -->
<g id="edge9" class="edge">
<title>Node1&#45;&gt;Node10</title>
<path fill="none" stroke="midnightblue" d="M854.25,-70.42C928.71,-62.78 1064.01,-48.07 1179,-31 1190.73,-29.26 1203.37,-27.12 1215.09,-25.03"/>
<polygon fill="midnightblue" stroke="midnightblue" points="853.75,-66.95 844.16,-71.45 854.46,-73.91 853.75,-66.95"/>
</g>
<!-- Node11 -->
<g id="node11" class="node">
<title>Node11</title>
<g id="a_node11"><a xlink:href="max30001g__regs_8cpp.html" target="_top" xlink:title=" ">
<polygon fill="white" stroke="black" points="1351,-6 1351,-25 1477,-25 1477,-6 1351,-6"/>
<text text-anchor="middle" x="1414" y="-13" font-family="Helvetica,sans-Serif" font-size="10.00">src/max30001g_regs.cpp</text>
</a>
</g>
</g>
<!-- Node1&#45;&gt;Node11 -->
<g id="edge10" class="edge">
<title>Node1&#45;&gt;Node11</title>
<path fill="none" stroke="midnightblue" d="M854.13,-73.51C953.07,-68.64 1164.83,-56.08 1342,-31 1353.11,-29.43 1365.09,-27.22 1376.03,-25.01"/>
<polygon fill="midnightblue" stroke="midnightblue" points="853.87,-70.02 844.05,-74 854.21,-77.01 853.87,-70.02"/>
</g>
<!-- Node12 -->
<g id="node12" class="node">
<title>Node12</title>
<g id="a_node12"><a xlink:href="max30001g__system_8cpp.html" target="_top" xlink:title=" ">
<polygon fill="white" stroke="black" points="1495,-6 1495,-25 1635,-25 1635,-6 1495,-6"/>
<text text-anchor="middle" x="1565" y="-13" font-family="Helvetica,sans-Serif" font-size="10.00">src/max30001g_system.cpp</text>
</a>
</g>
</g>
<!-- Node1&#45;&gt;Node12 -->
<g id="edge11" class="edge">
<title>Node1&#45;&gt;Node12</title>
<path fill="none" stroke="midnightblue" d="M854.27,-74.53C971.95,-70.98 1252.5,-59.97 1486,-31 1498.32,-29.47 1511.62,-27.25 1523.73,-25.01"/>
<polygon fill="midnightblue" stroke="midnightblue" points="853.96,-71.04 844.07,-74.84 854.17,-78.04 853.96,-71.04"/>
</g>
</g>
</svg>
