<?xml version="1.0" encoding="UTF-8" standalone="no"?>
<!DOCTYPE svg PUBLIC "-//W3C//DTD SVG 1.1//EN"
 "http://www.w3.org/Graphics/SVG/1.1/DTD/svg11.dtd">
<!-- Generated by graphviz version 2.43.0 (0)
 -->
<!-- Title: src/max30001g_readdata.cpp Pages: 1 -->
<!--zoomable 252 -->
<svg id="main" version="1.1" xmlns="http://www.w3.org/2000/svg" xmlns:xlink="http://www.w3.org/1999/xlink" xml:space="preserve" onload="init(evt)">
<style type="text/css"><![CDATA[
.edge:hover path { stroke: red; }
.edge:hover polygon { stroke: red; fill: red; }
]]></style>
<script type="text/javascript"><![CDATA[
var edges = document.getElementsByTagName('g');
if (edges && edges.length) {
  for (var i=0;i<edges.length;i++) {
    if (edges[i].id.substr(0,4)=='edge') {
      edges[i].setAttribute('class','edge');
    }
  }
}
]]></script>
        <defs>
                <circle id="rim" cx="0" cy="0" r="7"/>
                <circle id="rim2" cx="0" cy="0" r="3.5"/>
                <g id="zoomPlus">
                        <use xlink:href="#rim" fill="#404040">
                                <set attributeName="fill" to="#808080" begin="zoomplus.mouseover" end="zoomplus.mouseout"/>
                        </use>
                        <path d="M-4,0h8M0,-4v8" fill="none" stroke="white" stroke-width="1.5" pointer-events="none"/>
                </g>
                <g id="zoomMin">
                        <use xlink:href="#rim" fill="#404040">
                                <set attributeName="fill" to="#808080" begin="zoomminus.mouseover" end="zoomminus.mouseout"/>
                        </use>
                        <path d="M-4,0h8" fill="none" stroke="white" stroke-width="1.5" pointer-events="none"/>
                </g>
                <g id="dirArrow">
                        <path fill="none" stroke="white" stroke-width="1.5" d="M0,-3.0v7 M-2.5,-0.5L0,-3.0L2.5,-0.5"/>
                </g>
               <g id="resetDef">
                       <use xlink:href="#rim2" fill="#404040">
                               <set attributeName="fill" to="#808080" begin="reset.mouseover" end="reset.mouseout"/>
                       </use>
               </g>
        </defs>

<script type="text/javascript">
var viewWidth = 565;
var viewHeight = 252;
var sectionId = 'dynsection-0';
</script>
<script xlink:href="svgpan.js"/>
<svg id="graph" class="graph">
<g id="viewport">
<title>src/max30001g_readdata.cpp</title>
<polygon fill="white" stroke="transparent" points="-4,4 -4,-248 560.93,-248 560.93,4 -4,4"/>
<!-- Node1 -->
<g id="node1" class="node">
<title>Node1</title>
<g id="a_node1"><a xlink:title=" ">
<polygon fill="#bfbfbf" stroke="black" points="108.93,-224.5 108.93,-243.5 253.93,-243.5 253.93,-224.5 108.93,-224.5"/>
<text text-anchor="middle" x="181.43" y="-231.5" font-family="Helvetica,sans-Serif" font-size="10.00">src/max30001g_readdata.cpp</text>
</a>
</g>
</g>
<!-- Node2 -->
<g id="node2" class="node">
<title>Node2</title>
<g id="a_node2"><a xlink:title=" ">
<polygon fill="white" stroke="#bfbfbf" points="19.43,-168.5 19.43,-187.5 77.43,-187.5 77.43,-168.5 19.43,-168.5"/>
<text text-anchor="middle" x="48.43" y="-175.5" font-family="Helvetica,sans-Serif" font-size="10.00">Arduino.h</text>
</a>
</g>
</g>
<!-- Node1&#45;&gt;Node2 -->
<g id="edge1" class="edge">
<title>Node1&#45;&gt;Node2</title>
<path fill="none" stroke="midnightblue" d="M160.35,-224.44C138.37,-215.52 103.69,-201.44 78.76,-191.32"/>
<polygon fill="midnightblue" stroke="midnightblue" points="79.99,-188.04 69.4,-187.52 77.35,-194.52 79.99,-188.04"/>
</g>
<!-- Node3 -->
<g id="node3" class="node">
<title>Node3</title>
<g id="a_node3"><a xlink:title=" ">
<polygon fill="white" stroke="#bfbfbf" points="95.93,-168.5 95.93,-187.5 142.93,-187.5 142.93,-168.5 95.93,-168.5"/>
<text text-anchor="middle" x="119.43" y="-175.5" font-family="Helvetica,sans-Serif" font-size="10.00">math.h</text>
</a>
</g>
</g>
<!-- Node1&#45;&gt;Node3 -->
<g id="edge2" class="edge">
<title>Node1&#45;&gt;Node3</title>
<path fill="none" stroke="midnightblue" d="M171.47,-224.32C162.3,-216.34 148.49,-204.31 137.4,-194.65"/>
<polygon fill="midnightblue" stroke="midnightblue" points="139.41,-191.76 129.57,-187.83 134.81,-197.04 139.41,-191.76"/>
</g>
<!-- Node4 -->
<g id="node4" class="node">
<title>Node4</title>
<g id="a_node4"><a xlink:title=" ">
<polygon fill="white" stroke="#bfbfbf" points="161.43,-168.5 161.43,-187.5 201.43,-187.5 201.43,-168.5 161.43,-168.5"/>
<text text-anchor="middle" x="181.43" y="-175.5" font-family="Helvetica,sans-Serif" font-size="10.00">limits</text>
</a>
</g>
</g>
<!-- Node1&#45;&gt;Node4 -->
<g id="edge3" class="edge">
<title>Node1&#45;&gt;Node4</title>
<path fill="none" stroke="midnightblue" d="M181.43,-224.08C181.43,-217.01 181.43,-206.86 181.43,-197.99"/>
<polygon fill="midnightblue" stroke="midnightblue" points="184.93,-197.75 181.43,-187.75 177.93,-197.75 184.93,-197.75"/>
</g>
<!-- Node5 -->
<g id="node5" class="node">
<title>Node5</title>
<g id="a_node5"><a xlink:title=" ">
<polygon fill="white" stroke="#bfbfbf" points="219.43,-168.5 219.43,-187.5 269.43,-187.5 269.43,-168.5 219.43,-168.5"/>
<text text-anchor="middle" x="244.43" y="-175.5" font-family="Helvetica,sans-Serif" font-size="10.00">logger.h</text>
</a>
</g>
</g>
<!-- Node1&#45;&gt;Node5 -->
<g id="edge4" class="edge">
<title>Node1&#45;&gt;Node5</title>
<path fill="none" stroke="midnightblue" d="M191.55,-224.32C200.95,-216.26 215.17,-204.08 226.5,-194.37"/>
<polygon fill="midnightblue" stroke="midnightblue" points="228.81,-197 234.12,-187.83 224.25,-191.68 228.81,-197"/>
</g>
<!-- Node6 -->
<g id="node6" class="node">
<title>Node6</title>
<g id="a_node6"><a xlink:href="max30001g_8h.html" target="_top" xlink:title=" ">
<polygon fill="white" stroke="black" points="287.93,-168.5 287.93,-187.5 362.93,-187.5 362.93,-168.5 287.93,-168.5"/>
<text text-anchor="middle" x="325.43" y="-175.5" font-family="Helvetica,sans-Serif" font-size="10.00">max30001g.h</text>
</a>
</g>
</g>
<!-- Node1&#45;&gt;Node6 -->
<g id="edge5" class="edge">
<title>Node1&#45;&gt;Node6</title>
<path fill="none" stroke="midnightblue" d="M204.24,-224.44C228.26,-215.44 266.26,-201.19 293.3,-191.05"/>
<polygon fill="midnightblue" stroke="midnightblue" points="294.58,-194.3 302.72,-187.52 292.12,-187.75 294.58,-194.3"/>
</g>
<!-- Node7 -->
<g id="node7" class="node">
<title>Node7</title>
<g id="a_node7"><a xlink:title=" ">
<polygon fill="white" stroke="#bfbfbf" points="142.93,-0.5 142.93,-19.5 191.93,-19.5 191.93,-0.5 142.93,-0.5"/>
<text text-anchor="middle" x="167.43" y="-7.5" font-family="Helvetica,sans-Serif" font-size="10.00">stdint.h</text>
</a>
</g>
</g>
<!-- Node6&#45;&gt;Node7 -->
<g id="edge6" class="edge">
<title>Node6&#45;&gt;Node7</title>
<path fill="none" stroke="midnightblue" d="M290.49,-168.48C211.2,-148.79 23.19,-99.99 6.43,-76 -26.02,-29.58 75.89,-16.28 132.41,-12.5"/>
<polygon fill="midnightblue" stroke="midnightblue" points="132.96,-15.97 142.73,-11.88 132.54,-8.98 132.96,-15.97"/>
</g>
<!-- Node8 -->
<g id="node8" class="node">
<title>Node8</title>
<g id="a_node8"><a xlink:title=" ">
<polygon fill="white" stroke="#bfbfbf" points="515.93,-112.5 515.93,-131.5 556.93,-131.5 556.93,-112.5 515.93,-112.5"/>
<text text-anchor="middle" x="536.43" y="-119.5" font-family="Helvetica,sans-Serif" font-size="10.00">SPI.h</text>
</a>
</g>
</g>
<!-- Node6&#45;&gt;Node8 -->
<g id="edge7" class="edge">
<title>Node6&#45;&gt;Node8</title>
<path fill="none" stroke="midnightblue" d="M358.84,-168.47C394.25,-159.43 451.78,-144.73 501.43,-132 502.87,-131.63 504.35,-131.25 505.84,-130.87"/>
<polygon fill="midnightblue" stroke="midnightblue" points="506.89,-134.21 515.7,-128.33 505.14,-127.43 506.89,-134.21"/>
</g>
<!-- Node9 -->
<g id="node9" class="node">
<title>Node9</title>
<g id="a_node9"><a xlink:href="max30001g__defs_8h.html" target="_top" xlink:title=" ">
<polygon fill="white" stroke="black" points="357.93,-0.5 357.93,-19.5 456.93,-19.5 456.93,-0.5 357.93,-0.5"/>
<text text-anchor="middle" x="407.43" y="-7.5" font-family="Helvetica,sans-Serif" font-size="10.00">max30001g_defs.h</text>
</a>
</g>
</g>
<!-- Node6&#45;&gt;Node9 -->
<g id="edge8" class="edge">
<title>Node6&#45;&gt;Node9</title>
<path fill="none" stroke="midnightblue" d="M349.1,-168.43C382.79,-154.78 443.26,-124.58 468.43,-76 479.15,-55.29 456.11,-36.44 435.34,-24.43"/>
<polygon fill="midnightblue" stroke="midnightblue" points="436.85,-21.27 426.39,-19.57 433.51,-27.42 436.85,-21.27"/>
</g>
<!-- Node10 -->
<g id="node10" class="node">
<title>Node10</title>
<g id="a_node10"><a xlink:href="max30001g__regs__typedefs_8h.html" target="_top" xlink:title=" ">
<polygon fill="white" stroke="black" points="15.43,-56.5 15.43,-75.5 157.43,-75.5 157.43,-56.5 15.43,-56.5"/>
<text text-anchor="middle" x="86.43" y="-63.5" font-family="Helvetica,sans-Serif" font-size="10.00">max30001g_regs_typedefs.h</text>
</a>
</g>
</g>
<!-- Node6&#45;&gt;Node10 -->
<g id="edge9" class="edge">
<title>Node6&#45;&gt;Node10</title>
<path fill="none" stroke="midnightblue" d="M297.81,-168.44C272.33,-160.21 233.67,-146.84 201.43,-132 167.92,-116.58 131.12,-94.88 108.39,-80.88"/>
<polygon fill="midnightblue" stroke="midnightblue" points="110.19,-77.87 99.85,-75.56 106.49,-83.81 110.19,-77.87"/>
</g>
<!-- Node11 -->
<g id="node11" class="node">
<title>Node11</title>
<g id="a_node11"><a xlink:href="max30001g__typedefs_8h.html" target="_top" xlink:title=" ">
<polygon fill="white" stroke="black" points="341.43,-56.5 341.43,-75.5 459.43,-75.5 459.43,-56.5 341.43,-56.5"/>
<text text-anchor="middle" x="400.43" y="-63.5" font-family="Helvetica,sans-Serif" font-size="10.00">max30001g_typedefs.h</text>
</a>
</g>
</g>
<!-- Node6&#45;&gt;Node11 -->
<g id="edge11" class="edge">
<title>Node6&#45;&gt;Node11</title>
<path fill="none" stroke="midnightblue" d="M331.31,-168.37C343.69,-150.22 372.61,-107.8 388.84,-83.99"/>
<polygon fill="midnightblue" stroke="midnightblue" points="391.83,-85.83 394.57,-75.59 386.04,-81.88 391.83,-85.83"/>
</g>
<!-- Node12 -->
<g id="node12" class="node">
<title>Node12</title>
<g id="a_node12"><a xlink:href="max30001g__globals_8h.html" target="_top" xlink:title=" ">
<polygon fill="white" stroke="black" points="210.93,-112.5 210.93,-131.5 321.93,-131.5 321.93,-112.5 210.93,-112.5"/>
<text text-anchor="middle" x="266.43" y="-119.5" font-family="Helvetica,sans-Serif" font-size="10.00">max30001g_globals.h</text>
</a>
</g>
</g>
<!-- Node6&#45;&gt;Node12 -->
<g id="edge14" class="edge">
<title>Node6&#45;&gt;Node12</title>
<path fill="none" stroke="midnightblue" d="M315.95,-168.32C307.23,-160.34 294.08,-148.31 283.53,-138.65"/>
<polygon fill="midnightblue" stroke="midnightblue" points="285.82,-136 276.08,-131.83 281.09,-141.17 285.82,-136"/>
</g>
<!-- Node10&#45;&gt;Node7 -->
<g id="edge10" class="edge">
<title>Node10&#45;&gt;Node7</title>
<path fill="none" stroke="midnightblue" d="M99.44,-56.32C111.96,-47.98 131.11,-35.21 145.9,-25.35"/>
<polygon fill="midnightblue" stroke="midnightblue" points="148.07,-28.11 154.45,-19.65 144.18,-22.29 148.07,-28.11"/>
</g>
<!-- Node11&#45;&gt;Node7 -->
<g id="edge12" class="edge">
<title>Node11&#45;&gt;Node7</title>
<path fill="none" stroke="midnightblue" d="M360.68,-56.46C322.49,-48.15 262.91,-34.93 202.06,-20.09"/>
<polygon fill="midnightblue" stroke="midnightblue" points="202.83,-16.67 192.28,-17.69 201.16,-23.47 202.83,-16.67"/>
</g>
<!-- Node11&#45;&gt;Node9 -->
<g id="edge13" class="edge">
<title>Node11&#45;&gt;Node9</title>
<path fill="none" stroke="midnightblue" d="M401.58,-56.08C402.51,-48.93 403.85,-38.64 405,-29.69"/>
<polygon fill="midnightblue" stroke="midnightblue" points="408.48,-30.12 406.29,-19.75 401.54,-29.22 408.48,-30.12"/>
</g>
<!-- Node12&#45;&gt;Node7 -->
<g id="edge15" class="edge">
<title>Node12&#45;&gt;Node7</title>
<path fill="none" stroke="midnightblue" d="M250.99,-112.37C237.5,-104.27 218,-91.16 204.43,-76 191.87,-61.97 181.66,-42.97 175.18,-29.14"/>
<polygon fill="midnightblue" stroke="midnightblue" points="178.25,-27.44 170.96,-19.74 171.86,-30.3 178.25,-27.44"/>
</g>
<!-- Node12&#45;&gt;Node9 -->
<g id="edge20" class="edge">
<title>Node12&#45;&gt;Node9</title>
<path fill="none" stroke="midnightblue" d="M273.98,-112.34C285.69,-99.22 309.29,-73.92 332.43,-56 347.79,-44.1 366.53,-32.85 381.44,-24.58"/>
<polygon fill="midnightblue" stroke="midnightblue" points="383.5,-27.45 390.61,-19.59 380.15,-21.3 383.5,-27.45"/>
</g>
<!-- Node12&#45;&gt;Node10 -->
<g id="edge22" class="edge">
<title>Node12&#45;&gt;Node10</title>
<path fill="none" stroke="midnightblue" d="M237.91,-112.44C207.36,-103.28 158.72,-88.69 124.83,-78.52"/>
<polygon fill="midnightblue" stroke="midnightblue" points="125.4,-75.04 114.82,-75.52 123.39,-81.74 125.4,-75.04"/>
</g>
<!-- Node12&#45;&gt;Node11 -->
<g id="edge21" class="edge">
<title>Node12&#45;&gt;Node11</title>
<path fill="none" stroke="midnightblue" d="M287.66,-112.44C309.81,-103.52 344.75,-89.44 369.86,-79.32"/>
<polygon fill="midnightblue" stroke="midnightblue" points="371.33,-82.5 379.29,-75.52 368.71,-76.01 371.33,-82.5"/>
</g>
<!-- Node13 -->
<g id="node13" class="node">
<title>Node13</title>
<g id="a_node13"><a xlink:href="RingBuffer_8h.html" target="_top" xlink:title=" ">
<polygon fill="white" stroke="black" points="213.93,-56.5 213.93,-75.5 284.93,-75.5 284.93,-56.5 213.93,-56.5"/>
<text text-anchor="middle" x="249.43" y="-63.5" font-family="Helvetica,sans-Serif" font-size="10.00">RingBuffer.h</text>
</a>
</g>
</g>
<!-- Node12&#45;&gt;Node13 -->
<g id="edge16" class="edge">
<title>Node12&#45;&gt;Node13</title>
<path fill="none" stroke="midnightblue" d="M263.62,-112.08C261.34,-104.85 258.06,-94.41 255.22,-85.4"/>
<polygon fill="midnightblue" stroke="midnightblue" points="258.52,-84.24 252.18,-75.75 251.85,-86.34 258.52,-84.24"/>
</g>
<!-- Node13&#45;&gt;Node7 -->
<g id="edge18" class="edge">
<title>Node13&#45;&gt;Node7</title>
<path fill="none" stroke="midnightblue" d="M236.25,-56.32C223.58,-47.98 204.19,-35.21 189.22,-25.35"/>
<polygon fill="midnightblue" stroke="midnightblue" points="190.85,-22.23 180.57,-19.65 187,-28.08 190.85,-22.23"/>
</g>
<!-- Node14 -->
<g id="node14" class="node">
<title>Node14</title>
<g id="a_node14"><a xlink:title=" ">
<polygon fill="white" stroke="#bfbfbf" points="290.93,-0.5 290.93,-19.5 339.93,-19.5 339.93,-0.5 290.93,-0.5"/>
<text text-anchor="middle" x="315.43" y="-7.5" font-family="Helvetica,sans-Serif" font-size="10.00">string.h</text>
</a>
</g>
</g>
<!-- Node13&#45;&gt;Node14 -->
<g id="edge17" class="edge">
<title>Node13&#45;&gt;Node14</title>
<path fill="none" stroke="midnightblue" d="M260.03,-56.32C269.88,-48.26 284.78,-36.08 296.64,-26.37"/>
<polygon fill="midnightblue" stroke="midnightblue" points="299.11,-28.88 304.63,-19.83 294.67,-23.46 299.11,-28.88"/>
</g>
<!-- Node15 -->
<g id="node15" class="node">
<title>Node15</title>
<g id="a_node15"><a xlink:title=" ">
<polygon fill="white" stroke="#bfbfbf" points="210.43,-0.5 210.43,-19.5 272.43,-19.5 272.43,-0.5 210.43,-0.5"/>
<text text-anchor="middle" x="241.43" y="-7.5" font-family="Helvetica,sans-Serif" font-size="10.00">type_traits</text>
</a>
</g>
</g>
<!-- Node13&#45;&gt;Node15 -->
<g id="edge19" class="edge">
<title>Node13&#45;&gt;Node15</title>
<path fill="none" stroke="midnightblue" d="M248.11,-56.08C247.05,-48.93 245.52,-38.64 244.2,-29.69"/>
<polygon fill="midnightblue" stroke="midnightblue" points="247.65,-29.13 242.72,-19.75 240.73,-30.16 247.65,-29.13"/>
</g>
</g>
</svg>
        <g id="navigator" transform="translate(0 0)" fill="#404254">
                <rect fill="#f2f5e9" fill-opacity="0.5" stroke="#606060" stroke-width=".5" x="0" y="0" width="60" height="60"/>
                <use id="zoomplus" xlink:href="#zoomPlus" x="17" y="9" onmousedown="handleZoom(evt,'in')"/>
                <use id="zoomminus" xlink:href="#zoomMin" x="42" y="9" onmousedown="handleZoom(evt,'out')"/>
                <use id="reset" xlink:href="#resetDef" x="30" y="36" onmousedown="handleReset()"/>
                <g id="arrowUp" xlink:href="#dirArrow" transform="translate(30 24)" onmousedown="handlePan(0,-1)">
                  <use xlink:href="#rim" fill="#404040">
                        <set attributeName="fill" to="#808080" begin="arrowUp.mouseover" end="arrowUp.mouseout"/>
                  </use>
                  <path fill="none" stroke="white" stroke-width="1.5" d="M0,-3.0v7 M-2.5,-0.5L0,-3.0L2.5,-0.5"/>
                </g>
                <g id="arrowRight" xlink:href="#dirArrow" transform="rotate(90) translate(36 -43)" onmousedown="handlePan(1,0)">
                  <use xlink:href="#rim" fill="#404040">
                        <set attributeName="fill" to="#808080" begin="arrowRight.mouseover" end="arrowRight.mouseout"/>
                  </use>
                  <path fill="none" stroke="white" stroke-width="1.5" d="M0,-3.0v7 M-2.5,-0.5L0,-3.0L2.5,-0.5"/>
                </g>
                <g id="arrowDown" xlink:href="#dirArrow" transform="rotate(180) translate(-30 -48)" onmousedown="handlePan(0,1)">
                  <use xlink:href="#rim" fill="#404040">
                        <set attributeName="fill" to="#808080" begin="arrowDown.mouseover" end="arrowDown.mouseout"/>
                  </use>
                  <path fill="none" stroke="white" stroke-width="1.5" d="M0,-3.0v7 M-2.5,-0.5L0,-3.0L2.5,-0.5"/>
                </g>
                <g id="arrowLeft" xlink:href="#dirArrow" transform="rotate(270) translate(-36 17)" onmousedown="handlePan(-1,0)">
                  <use xlink:href="#rim" fill="#404040">
                        <set attributeName="fill" to="#808080" begin="arrowLeft.mouseover" end="arrowLeft.mouseout"/>
                  </use>
                  <path fill="none" stroke="white" stroke-width="1.5" d="M0,-3.0v7 M-2.5,-0.5L0,-3.0L2.5,-0.5"/>
                </g>
        </g>
        <svg viewBox="0 0 15 15" width="100%" height="30px" preserveAspectRatio="xMaxYMin meet">
         <g id="arrow_out" transform="scale(0.3 0.3)">
          <a xlink:href="max30001g__readdata_8cpp__incl_org.svg" target="_base">
           <rect id="button" ry="5" rx="5" y="6" x="6" height="38" width="38"
                fill="#f2f5e9" fill-opacity="0.5" stroke="#606060" stroke-width="1.0"/>
           <path id="arrow"
             d="M 11.500037,31.436501 C 11.940474,20.09759 22.043105,11.32322 32.158766,21.979434 L 37.068811,17.246167 C 37.068811,17.246167 37.088388,32 37.088388,32 L 22.160133,31.978069 C 22.160133,31.978069 26.997745,27.140456 26.997745,27.140456 C 18.528582,18.264221 13.291696,25.230495 11.500037,31.436501 z"
             style="fill:#404040;"/>
          </a>
         </g>
        </svg>
</svg>
